/* XPM */
static char * critterbot48_xpm[] = {
"48 48 812 2",
"  	c None",
". 	c #CED8E5",
"+ 	c #C5CEDA",
"@ 	c #BAC3CC",
"# 	c #C2CAD5",
"$ 	c #D9E3F3",
"% 	c #D4DEED",
"& 	c #DCE6F7",
"* 	c #CCD5E2",
"= 	c #B3BBC3",
"- 	c #ACB3BA",
"; 	c #B6BEC6",
"> 	c #CDD7E4",
", 	c #CAD4E0",
"' 	c #D1DBE9",
") 	c #DEE8F9",
"! 	c #DFE9FA",
"~ 	c #D5DFEE",
"{ 	c #C2CBD6",
"] 	c #B1B9C1",
"^ 	c #B2BAC2",
"/ 	c #D7E1F0",
"( 	c #D6E0EF",
"_ 	c #D5DFEF",
": 	c #CED7E5",
"< 	c #CFD8E6",
"[ 	c #DFE9FB",
"} 	c #E0EAFB",
"| 	c #D3DDEC",
"1 	c #BEC6D1",
"2 	c #B4BCC4",
"3 	c #B2BBC3",
"4 	c #CBD4E0",
"5 	c #DBE5F6",
"6 	c #D9E3F4",
"7 	c #DCE6F8",
"8 	c #DDE7F8",
"9 	c #CBD4E1",
"0 	c #BDC5D0",
"a 	c #B9C1CA",
"b 	c #C2C9D5",
"c 	c #D1DAE9",
"d 	c #C4CDD8",
"e 	c #CFD9E7",
"f 	c #DEE9FA",
"g 	c #D1DBEA",
"h 	c #B2B9C2",
"i 	c #ADB6BA",
"j 	c #AFBABF",
"k 	c #B4C3C7",
"l 	c #DAE4F4",
"m 	c #BDC6D0",
"n 	c #BBC3CD",
"o 	c #D0D9E7",
"p 	c #D3DDEB",
"q 	c #D7E0F0",
"r 	c #DDE7F9",
"s 	c #C8D1DD",
"t 	c #B5BDC6",
"u 	c #BFC7D1",
"v 	c #899694",
"w 	c #4C5351",
"x 	c #323A36",
"y 	c #343C38",
"z 	c #707B79",
"A 	c #C4CFD9",
"B 	c #E1EAFC",
"C 	c #D3DCEB",
"D 	c #B6BEC7",
"E 	c #AEB6BD",
"F 	c #BAC2CC",
"G 	c #CCD5E3",
"H 	c #C8D2DD",
"I 	c #DCE5F6",
"J 	c #A3AFB3",
"K 	c #171B19",
"L 	c #040304",
"M 	c #090A0A",
"N 	c #161618",
"O 	c #455149",
"P 	c #AAB5B8",
"Q 	c #C0C8D3",
"R 	c #D0DAE8",
"S 	c #CCD5E1",
"T 	c #C8D1DC",
"U 	c #D2DCEB",
"V 	c #D8E2F2",
"W 	c #D7E1F1",
"X 	c #DCE7F8",
"Y 	c #E0EAFC",
"Z 	c #B0B7BF",
"` 	c #B5BDC5",
" .	c #E2EDFE",
"..	c #939DA0",
"+.	c #363B39",
"@.	c #525959",
"#.	c #6C7975",
"$.	c #8D9A98",
"%.	c #A4ADB1",
"&.	c #ACB4BC",
"*.	c #BBC4CE",
"=.	c #D2DCEA",
"-.	c #D5DEED",
";.	c #DDE8F9",
">.	c #DEE8FA",
",.	c #DAE3F4",
"'.	c #CED7E4",
").	c #E1EBFD",
"!.	c #D0DEE7",
"~.	c #C9D4DE",
"{.	c #BEC5CF",
"].	c #BBC2CC",
"^.	c #C4CDD9",
"/.	c #C0C9D4",
"(.	c #BCC3CF",
"_.	c #BCC5CF",
":.	c #BCC5CE",
"<.	c #C4CED9",
"[.	c #DAE4F5",
"}.	c #E0EAFD",
"|.	c #C7D0DD",
"1.	c #D3DDEA",
"2.	c #C5D0D9",
"3.	c #C7D1DC",
"4.	c #E0E9FB",
"5.	c #D4DDED",
"6.	c #C2C9D6",
"7.	c #B6BEC8",
"8.	c #B6BFC7",
"9.	c #C9D2DE",
"0.	c #B9C1CB",
"a.	c #CAD3E0",
"b.	c #9EA7A9",
"c.	c #9FA8AB",
"d.	c #B5BCC5",
"e.	c #CBD5E2",
"f.	c #D0DAE7",
"g.	c #C7D1DD",
"h.	c #CBD3E1",
"i.	c #C2CBD5",
"j.	c #B8BFC9",
"k.	c #B3BAC3",
"l.	c #DEE7F8",
"m.	c #C1C8D4",
"n.	c #C1CAD3",
"o.	c #889694",
"p.	c #333936",
"q.	c #5C6963",
"r.	c #CCD6E2",
"s.	c #C3CBD7",
"t.	c #BBC3CE",
"u.	c #C9D2DF",
"v.	c #ABB2B9",
"w.	c #ADB4BB",
"x.	c #C1C9D4",
"y.	c #B1B8C0",
"z.	c #6F7D76",
"A.	c #8D979A",
"B.	c #EEF5FF",
"C.	c #E5EBFF",
"D.	c #DDE3F9",
"E.	c #DCE0F6",
"F.	c #DBDFF4",
"G.	c #BCC3CE",
"H.	c #C3CBD8",
"I.	c #CED6E5",
"J.	c #C7CFDC",
"K.	c #97A1A3",
"L.	c #98A6A6",
"M.	c #D8E1F2",
"N.	c #B4BFC4",
"O.	c #6A7572",
"P.	c #1B1F1D",
"Q.	c #0B0A0C",
"R.	c #56635B",
"S.	c #A9B1B5",
"T.	c #D9E2F3",
"U.	c #C8D1DE",
"V.	c #B7BFC8",
"W.	c #AEB5BC",
"X.	c #E2EBFD",
"Y.	c #7A8C83",
"Z.	c #7B8784",
"`.	c #C6CDDA",
" +	c #C3CDD7",
".+	c #A9C3B8",
"++	c #88B591",
"@+	c #81AC89",
"#+	c #9FBBAB",
"$+	c #A6AEB3",
"%+	c #B2B5C1",
"&+	c #BBBECC",
"*+	c #DDE0F6",
"=+	c #A8B0BA",
"-+	c #64796A",
";+	c #B4BFC5",
">+	c #6E7976",
",+	c #121313",
"'+	c #111213",
")+	c #4F5954",
"!+	c #9BA6A7",
"~+	c #C6CEDA",
"{+	c #D7E0EF",
"]+	c #D8E1F1",
"^+	c #B9C0CB",
"/+	c #D4DEEC",
"(+	c #C8D0DC",
"_+	c #6D9873",
":+	c #579B59",
"<+	c #64B467",
"[+	c #59AF5A",
"}+	c #54AE54",
"|+	c #52AE51",
"1+	c #51AD51",
"2+	c #54B053",
"3+	c #5CA75F",
"4+	c #70A276",
"5+	c #86AF8E",
"6+	c #A7BFB5",
"7+	c #96A6A4",
"8+	c #6C8273",
"9+	c #D0DCE7",
"0+	c #A8B2B7",
"a+	c #3B473F",
"b+	c #343938",
"c+	c #717E78",
"d+	c #B2BDC1",
"e+	c #D0DAE9",
"f+	c #C1C9D5",
"g+	c #B5BDC7",
"h+	c #B7BEC7",
"i+	c #DCE6F6",
"j+	c #DBE3F6",
"k+	c #B3C7C3",
"l+	c #748F7B",
"m+	c #549356",
"n+	c #57B857",
"o+	c #55B056",
"p+	c #56B157",
"q+	c #57B158",
"r+	c #58B259",
"s+	c #56B257",
"t+	c #54B355",
"u+	c #51B251",
"v+	c #56B256",
"w+	c #5BA55D",
"x+	c #6E9474",
"y+	c #CFD8E8",
"z+	c #85918F",
"A+	c #A2AEAF",
"B+	c #C1C9D3",
"C+	c #B9C1CC",
"D+	c #BCC4CE",
"E+	c #C8CEDD",
"F+	c #B4BBC4",
"G+	c #6DA571",
"H+	c #50A651",
"I+	c #58AA5A",
"J+	c #59B25A",
"K+	c #59B15A",
"L+	c #5AB15B",
"M+	c #54B454",
"N+	c #68A86B",
"O+	c #B0B6C1",
"P+	c #E6EBFF",
"Q+	c #C1C8D3",
"R+	c #AAB0B8",
"S+	c #D6E0F0",
"T+	c #D4DDEC",
"U+	c #C1CAD4",
"V+	c #AFBBC0",
"W+	c #AFB3BD",
"X+	c #BDBCCD",
"Y+	c #77AF7D",
"Z+	c #52B551",
"`+	c #59B459",
" @	c #58B15A",
".@	c #58B159",
"+@	c #59B759",
"@@	c #559458",
"#@	c #5F7E64",
"$@	c #C3D1D8",
"%@	c #B0B8BF",
"&@	c #C6CFDB",
"*@	c #8F9C99",
"=@	c #96A3A0",
"-@	c #8AB293",
";@	c #63B265",
">@	c #58AE59",
",@	c #4FAC4E",
"'@	c #83B48A",
")@	c #DFE2F9",
"!@	c #C6D0DB",
"~@	c #C0C9D3",
"{@	c #CAD3DF",
"]@	c #B9C2CB",
"^@	c #CBD5E1",
"/@	c #BDC9D2",
"(@	c #9FAAAC",
"_@	c #D9DEF2",
":@	c #A2B0AF",
"<@	c #5FA461",
"[@	c #52B152",
"}@	c #54B254",
"|@	c #5FAC60",
"1@	c #BECCD2",
"2@	c #D2DAEA",
"3@	c #D2DCE9",
"4@	c #C5CED9",
"5@	c #BAC2CB",
"6@	c #E5EFFF",
"7@	c #A2ADB3",
"8@	c #6C7872",
"9@	c #B9C0CA",
"0@	c #8EB398",
"a@	c #55B255",
"b@	c #51AF51",
"c@	c #85BA8E",
"d@	c #D5DEEE",
"e@	c #E0E9FC",
"f@	c #DEE9F8",
"g@	c #D5E0EC",
"h@	c #A3ADB1",
"i@	c #606C66",
"j@	c #84A78B",
"k@	c #54B354",
"l@	c #58B558",
"m@	c #57945A",
"n@	c #7C8784",
"o@	c #D2D9E9",
"p@	c #D1DAE8",
"q@	c #BDC9CF",
"r@	c #707B7A",
"s@	c #4B5351",
"t@	c #8E9998",
"u@	c #959FA0",
"v@	c #76AA7B",
"w@	c #55B355",
"x@	c #59B15B",
"y@	c #59B359",
"z@	c #537B58",
"A@	c #4A4D51",
"B@	c #E2ECFF",
"C@	c #7B8985",
"D@	c #1A1F1B",
"E@	c #040204",
"F@	c #49504D",
"G@	c #CAD2DF",
"H@	c #85B58D",
"I@	c #53B153",
"J@	c #56B357",
"K@	c #68A26C",
"L@	c #4A544F",
"M@	c #C6CDDC",
"N@	c #E2ECFE",
"O@	c #D2DBEA",
"P@	c #6E7C78",
"Q@	c #1C211E",
"R@	c #110F13",
"S@	c #272F29",
"T@	c #BAC1CF",
"U@	c #9BBFA7",
"V@	c #51B150",
"W@	c #57B258",
"X@	c #59B35A",
"Y@	c #84A88B",
"Z@	c #A4ADB2",
"`@	c #DEE7F9",
" #	c #CED8E4",
".#	c #899795",
"+#	c #222624",
"@#	c #111013",
"##	c #1F2721",
"$#	c #A3A8B3",
"%#	c #ACC1BA",
"&#	c #58AF58",
"*#	c #5BB55C",
"=#	c #59B259",
"-#	c #58A759",
";#	c #A3B3B1",
">#	c #DEE5F9",
",#	c #CED9E5",
"'#	c #A4B2B2",
")#	c #B6C3C8",
"!#	c #3F4543",
"~#	c #040104",
"{#	c #2D342F",
"]#	c #A6AEB5",
"^#	c #B0B9BF",
"/#	c #68AE6B",
"(#	c #6EA873",
"_#	c #5CB05D",
":#	c #58B25A",
"<#	c #58B05A",
"[#	c #59B45A",
"}#	c #4FB04E",
"|#	c #7BA283",
"1#	c #D7DBF0",
"2#	c #DFEAFB",
"3#	c #E4EDFF",
"4#	c #99A6A7",
"5#	c #505956",
"6#	c #D1DAE6",
"7#	c #8C9898",
"8#	c #353C38",
"9#	c #7C8787",
"0#	c #D5DFED",
"a#	c #B9BCCA",
"b#	c #78A47E",
"c#	c #547659",
"d#	c #58A35A",
"e#	c #58B559",
"f#	c #5EB360",
"g#	c #5BB45C",
"h#	c #58B859",
"i#	c #50A750",
"j#	c #65A369",
"k#	c #CAD5DF",
"l#	c #E2EAFE",
"m#	c #DBE5F5",
"n#	c #D4DFEB",
"o#	c #4E5653",
"p#	c #3E4443",
"q#	c #B8C3C9",
"r#	c #CDD9E5",
"s#	c #D9E4F3",
"t#	c #E1EBFE",
"u#	c #D8DFF1",
"v#	c #A6B6B3",
"w#	c #5A6261",
"x#	c #567C5A",
"y#	c #5CBB5D",
"z#	c #5AB85B",
"A#	c #59B75A",
"B#	c #58B359",
"C#	c #59BA59",
"D#	c #6EAD73",
"E#	c #60AB62",
"F#	c #4D884F",
"G#	c #627D68",
"H#	c #BDC8D1",
"I#	c #E4ECFF",
"J#	c #DBE6F6",
"K#	c #99A7A7",
"L#	c #1F2321",
"M#	c #5F6868",
"N#	c #9DA9A9",
"O#	c #CDD6E2",
"P#	c #E3EDFF",
"Q#	c #DEE6F8",
"R#	c #919C9D",
"S#	c #4D5253",
"T#	c #538756",
"U#	c #59AA5A",
"V#	c #5BAB5D",
"W#	c #5CB95C",
"X#	c #58B459",
"Y#	c #58B059",
"Z#	c #5CB85D",
"`#	c #5DA560",
" $	c #516756",
".$	c #4C5451",
"+$	c #727D7C",
"@$	c #C5CCDB",
"#$	c #B5C0C6",
"$$	c #5C6763",
"%$	c #474E4C",
"&$	c #A1ADAF",
"*$	c #D4DDEB",
"=$	c #B2B9C1",
"-$	c #D7E3F0",
";$	c #4B5250",
">$	c #1B1D1D",
",$	c #2F3832",
"'$	c #303C33",
")$	c #4A7A4D",
"!$	c #59A85B",
"~$	c #58B358",
"{$	c #59B85A",
"]$	c #58B758",
"^$	c #56AD57",
"/$	c #58A559",
"($	c #48714B",
"_$	c #323037",
":$	c #353939",
"<$	c #859190",
"[$	c #D7E1EF",
"}$	c #77847E",
"|$	c #4B564E",
"1$	c #889492",
"2$	c #C2CBD3",
"3$	c #C9D2DD",
"4$	c #C9D4DF",
"5$	c #BEC7D1",
"6$	c #C4CCD9",
"7$	c #E5F0FF",
"8$	c #7A8684",
"9$	c #0B0B0B",
"0$	c #1C1B1E",
"a$	c #161418",
"b$	c #232126",
"c$	c #4F5E54",
"d$	c #556D59",
"e$	c #405943",
"f$	c #4B664F",
"g$	c #576E5C",
"h$	c #59705F",
"i$	c #3E4641",
"j$	c #131513",
"k$	c #8F9D9C",
"l$	c #E3EDFE",
"m$	c #DAE5F5",
"n$	c #A9B0B6",
"o$	c #A3ACB1",
"p$	c #B8C4CD",
"q$	c #C3CCD8",
"r$	c #E1EAFD",
"s$	c #CFDBE6",
"t$	c #525B58",
"u$	c #131314",
"v$	c #141416",
"w$	c #2A2F2D",
"x$	c #868C92",
"y$	c #A3AAB3",
"z$	c #A2ADB2",
"A$	c #B0B9C2",
"B$	c #C0C5D4",
"C$	c #CBD1E1",
"D$	c #B7C1C9",
"E$	c #687670",
"F$	c #CBD7E1",
"G$	c #E3ECFF",
"H$	c #C9D1DE",
"I$	c #AFB6BD",
"J$	c #C8D0DD",
"K$	c #E7F1FF",
"L$	c #D1D9E9",
"M$	c #BEC6D0",
"N$	c #C0C8D4",
"O$	c #EAF3FF",
"P$	c #8B9598",
"Q$	c #131614",
"R$	c #0E0D0F",
"S$	c #EEF7FF",
"T$	c #D5E0ED",
"U$	c #DCE5F7",
"V$	c #D3DCEC",
"W$	c #BEC6D2",
"X$	c #D9E2F2",
"Y$	c #DDE7F7",
"Z$	c #A3B0B1",
"`$	c #C1CAD5",
" %	c #C8D4DE",
".%	c #899594",
"+%	c #A5AEB2",
"@%	c #C0CED5",
"#%	c #2D3330",
"$%	c #040305",
"%%	c #4A504F",
"&%	c #D3DFEC",
"*%	c #E6F0FF",
"=%	c #B0B8C0",
"-%	c #D7E2EF",
";%	c #99A5A6",
">%	c #8B9798",
",%	c #D9E3F1",
"'%	c #A1AEB1",
")%	c #BEC7D2",
"!%	c #929C9D",
"~%	c #232825",
"{%	c #4C5652",
"]%	c #919B9C",
"^%	c #828E8A",
"/%	c #81908B",
"(%	c #9DA9AB",
"_%	c #5F6866",
":%	c #3B423E",
"<%	c #9BAAA9",
"[%	c #E6F1FF",
"}%	c #E0E9FA",
"|%	c #E2EDFD",
"1%	c #D9E6F2",
"2%	c #D2DEEA",
"3%	c #BCC8D0",
"4%	c #A4AFB3",
"5%	c #A4ABB0",
"6%	c #BDC4CF",
"7%	c #DCE4F5",
"8%	c #CBD8E1",
"9%	c #6E7B77",
"0%	c #1E221F",
"a%	c #272B2A",
"b%	c #83938D",
"c%	c #2C312F",
"d%	c #363D39",
"e%	c #A7B2B6",
"f%	c #303633",
"g%	c #0D0C0E",
"h%	c #252928",
"i%	c #4A5050",
"j%	c #454A4B",
"k%	c #171A19",
"l%	c #262928",
"m%	c #404644",
"n%	c #626C69",
"o%	c #737A7F",
"p%	c #7A8385",
"q%	c #767F80",
"r%	c #7B8387",
"s%	c #737B7E",
"t%	c #596461",
"u%	c #454C4A",
"v%	c #2D332F",
"w%	c #242D26",
"x%	c #7E8D87",
"y%	c #B4C0C6",
"z%	c #B0BFC1",
"A%	c #58625E",
"B%	c #111112",
"C%	c #1C1C1E",
"D%	c #494E4E",
"E%	c #282C2B",
"F%	c #131714",
"G%	c #CCD6E3",
"H%	c #D4DEEE",
"I%	c #DAE5F4",
"J%	c #8C9997",
"K%	c #343A37",
"L%	c #121214",
"M%	c #414746",
"N%	c #6B7773",
"O%	c #788382",
"P%	c #677270",
"Q%	c #3E4542",
"R%	c #3D4A41",
"S%	c #3C4840",
"T%	c #37403A",
"U%	c #2F3532",
"V%	c #272A2A",
"W%	c #1F1F21",
"X%	c #161717",
"Y%	c #1F2021",
"Z%	c #515D56",
"`%	c #58625D",
" &	c #56615B",
".&	c #1F2121",
"+&	c #2B2E2F",
"@&	c #4D5454",
"#&	c #2A2C2D",
"$&	c #111212",
"%&	c #697570",
"&&	c #D1DBE8",
"*&	c #CDD7E5",
"=&	c #D0DBE7",
"-&	c #737F7B",
";&	c #4F5955",
">&	c #75847D",
",&	c #E7F2FF",
"'&	c #B2BEC3",
")&	c #D0DBE6",
"!&	c #B1BCC1",
"~&	c #9EA9AB",
"{&	c #A5B1B3",
"]&	c #ADB9BB",
"^&	c #ADBABD",
"/&	c #A7B5B7",
"(&	c #A2B1B1",
"_&	c #9AAAA9",
":&	c #98A6A5",
"<&	c #828E8C",
"[&	c #5E6E65",
"}&	c #27292A",
"|&	c #0C0C0D",
"1&	c #59635E",
"2&	c #CAD5DE",
"3&	c #C3CCD7",
"4&	c #9BA6AA",
"5&	c #3E4841",
"6&	c #788281",
"7&	c #C5D2DA",
"8&	c #E6EFFF",
"9&	c #E4EEFF",
"0&	c #838D8F",
"a&	c #3B433F",
"b&	c #353F38",
"c&	c #38423C",
"d&	c #404744",
"e&	c #7F8989",
"f&	c #E2ECFD",
"g&	c #EDF7FF",
"h&	c #E9F3FF",
"i&	c #8C9897",
"j&	c #474F4C",
"k&	c #18191A",
"l&	c #0C0B0D",
"m&	c #434C47",
"n&	c #C2CFD6",
"o&	c #D6DFEF",
"p&	c #D1DEE9",
"q&	c #3D4441",
"r&	c #09090A",
"s&	c #7D8988",
"t&	c #B2BEC4",
"u&	c #DBE5F2",
"v&	c #626D6A",
"w&	c #131414",
"x&	c #161518",
"y&	c #18181A",
"z&	c #232426",
"A&	c #5B6662",
"B&	c #CFDBE5",
"C&	c #D9E3F2",
"D&	c #A1ABAF",
"E&	c #4B5551",
"F&	c #191D1B",
"G&	c #100F11",
"H&	c #404844",
"I&	c #BAC7CD",
"J&	c #BCC4CF",
"K&	c #E1EBFB",
"L&	c #99A5A9",
"M&	c #151915",
"N&	c #141715",
"O&	c #48504B",
"P&	c #57615D",
"Q&	c #48524D",
"R&	c #646C6C",
"S&	c #5E6765",
"T&	c #4B5151",
"U&	c #4D5353",
"V&	c #4E5354",
"W&	c #4A5150",
"X&	c #58605F",
"Y&	c #5A6361",
"Z&	c #3F4C44",
"`&	c #808C88",
" *	c #535C58",
".*	c #040505",
"+*	c #131315",
"@*	c #454E4A",
"#*	c #C2D0D7",
"$*	c #E3ECFE",
"%*	c #BFC7D2",
"&*	c #97A3A7",
"**	c #A3B0B4",
"=*	c #C4D2D8",
"-*	c #8C9A97",
";*	c #0A0A0B",
">*	c #141415",
",*	c #1A1B1C",
"'*	c #1D1F1F",
")*	c #1D1E1F",
"!*	c #171819",
"~*	c #0F0F11",
"{*	c #070607",
"]*	c #000000",
"^*	c #67706F",
"/*	c #8F9D9A",
"(*	c #232725",
"_*	c #0A0B0B",
":*	c #48504E",
"<*	c #C3D0D8",
"[*	c #BBC4CF",
"}*	c #BDC5CF",
"|*	c #BFC7D3",
"1*	c #E8F1FF",
"2*	c #D8E3F0",
"3*	c #4C5651",
"4*	c #1B1C1D",
"5*	c #161718",
"6*	c #111113",
"7*	c #0E0F0F",
"8*	c #141615",
"9*	c #2F3531",
"0*	c #6C7874",
"a*	c #BCC7D0",
"b*	c #A8B5BA",
"c*	c #798684",
"d*	c #B9C4CC",
"e*	c #CFD7E5",
"f*	c #C4CDDA",
"g*	c #EBF5FF",
"h*	c #9EABAF",
"i*	c #1A1C1B",
"j*	c #111313",
"k*	c #212523",
"l*	c #515957",
"m*	c #8B9A98",
"n*	c #C6D2DB",
"o*	c #DEE8F8",
"p*	c #C0C9D2",
"q*	c #B6BDC6",
"r*	c #BAC3CD",
"s*	c #C0CBD4",
"t*	c #47514C",
"u*	c #131415",
"v*	c #353D39",
"w*	c #6B7573",
"x*	c #A3B0B2",
"y*	c #D4E1EB",
"z*	c #CBD4E3",
"A*	c #C0C8D2",
"B*	c #9DA8AC",
"C*	c #7E8987",
"D*	c #BEC8D0",
"E*	c #BCC3CD",
"F*	c #B7BEC8",
"G*	c #BAC2CD",
"H*	c #B8C0C9",
"I*	c #D1D9E7",
"J*	c #BBC4CD",
"K*	c #BDC5CE",
"                                                                                    . + @ #     ",
"                                                                          $ % & & * = - ;       ",
"                                                                  > , ' $ ) ! ~ { ] ^           ",
"                                                          $ / ( _ : < [ } | 1 2 3               ",
"                                                    4 ' 5 5 6 7 / $ 8 9 0 a b                   ",
"                                              c > d e & 5 & & & f g h - i j k         l m n o   ",
"                                        ( $ p q 8 r 8 & 5 & r [ s t u v w x y z A B C D E F     ",
"                                  G H p l & r 8 I 5 5 5 & [ 6 F ^ ( J K L M N O P Q t n         ",
"                              R S T U & & 5 & V W 7 5 X Y < Z ` .  ...+.@.#.$.%.&.*.            ",
"                          =.-.W ;.! ! [ >.r 8 6 V & 7 ,.{ E '.).f W / !.~.{.].Q                 ",
"                      '.s ^./.*.(._.*.:.<.R [.}.! 5 f |.Z 1.2.3.4.5 5.6.7.8.            9.0 0.  ",
"                  a.^ b.c.d.Q e.=.f.g.h.i.j.k.s l.[ l m.n.o.p.q.r.s.t.u.      W 5 ) 6 D v.w._.  ",
"              -.x.- y.z.A.  B.C.D.E.F.G.H.I.J.K.L.~ M.N.O.P.Q.R.S.].r., V 8 T.5 5 U.V.y.0.      ",
"            p @ W.G X.Y.Z.`. +.+++@+#+$+%+&+*+=+-+;+0.>+,+'+)+!+~+{+% * 8 >.]+9.^+D             ",
"          C { Z /+  (+_+:+<+[+}+|+1+2+3+4+5+6+7+8+9+0+a+b+c+d+]+Y [.q ) e+f+g+D                 ",
"        < 9 h+i+j+k+l+m+n+o+p+q+r+r+q+s+t+u+v+w+x+~ y+z+A+B+8 >.& >.T.*.Z C+                    ",
"      { > D+c E+F+G+H+I+J+K+K+r+J+K+r+K+K+L+J+M+N+O+P+Q+R+S+>.7 [ =.t.V.                        ",
"    * T+^.U+V+W+X+Y+Z+`+ @r+ @.@ @ @.@ @ @.@ @+@@@#@$@T.%@< Y 8 &@V./.                          ",
"  . =.$ m.<.*@=@-@;@s+ @.@.@.@.@.@.@.@.@.@.@.@J+>@,@'@)@!@~@{@1 ]@                              ",
"  ^@[ /@(@_@:@<@[@s+K+ @.@J+ @.@J+ @.@J+ @.@J+K+r+}@|@1@2@3@4@5@                                ",
"  V 6@7@8@9@0@K+a@K+r+ @.@ @ @.@ @ @.@ @ @.@ @ @K+r+b@c@m.d@8 ^@                                ",
"e@f@g@h@i@j@k@r+K+.@.@.@.@.@.@.@.@.@.@.@.@.@.@.@.@J+l@m@n@o@Y p@                                ",
"q@r@s@t@u@v@w@x@r+.@J+ @.@J+ @.@J+ @.@J+ @.@J+ @.@y@y@z@A@U.B@u.G                               ",
"C@D@E@F@G@H@I@K+ @.@ @ @.@ @ @.@ @ @.@ @ @.@ @ @r+r+J@K@L@M@N@O@^@                              ",
"P@Q@R@S@T@U@V@J+r+K+.@.@.@.@.@.@.@.@.@.@.@.@.@.@K+W@X@Y@Z@W `@5  #                              ",
".#+#@###$#%#&#*#J+.@=# @.@J+ @.@J+ @.@J+ @.@J+.@J+a@-#;#>#>.>.,#'#                              ",
")#!#~#{#]#^#/#(#_#r+:# @.@ @ @.@ @ @.@J+J+q+.@<#[#}#|#1#2#[.3#4#5#                              ",
"6#7#8#9#0#a#b#c#d#e# @.@.@.@.@.@.@.@.@.@r+f#g#h#i#j#k#l#m#[ n#o#p#                              ",
";+q#r#s#t#u#v#w#x#y#z#A#r+K+ @.@J+r+ @B#C#D#E#F#G#H#I#J#) B K#L#M#                              ",
"  N#O#P#m#>.Q#R#S#T#U#V#W#X#.@Y#Y#J+e#Z#`# $.$+$@$I#7 5 P##$$$%$&$*$                            ",
"  ^ =$5 X 5 t#-$;$>$,$'$)$!$~${$]$^$/$($_$:$<$[$P#5 5 )./+}$|$1$2$3$                            ",
"  4$5$6$) ;.8 7$8$9$0$a$b$c$d$e$f$g$h$i$j$k$l$Y m$8 Y R n$o$p$0#]@!@                            ",
"  H $ _.q$8 ;.r$s$t$u$v$w$x$y$z$A$B$C$D$E$F$G$5 ) [ H$I$J$N@K$L$= 3.                            ",
"  M$g ,.^+N$]+N@O$P$Q$R$8#r#S$3#B@).r$Y T$U$) & V$W$1 X$P#}.Y$Z$5@>                             ",
"  { `$ %.%+%u :.Y$@%#%$%%%&%P#r 8 r e@N@*%*%( 2 =%< -%;%>%,%'%O )%~                             ",
"  > i.!%~%{%]%^%/%(%_%:%<%[%3#}%l$|%1%2%3%4%5%6%7%8%9%0%a%b%c%d%H p@                            ",
"    ( e%f%g%h%i%j%k%l%m%n%o%p%q%r%s%t%u%v%w%x%y%z%A%B%C%D%E%F%]%,%G%                            ",
"    H%I%J%K%L%M%N%O%P%Q%8#R%S%T%U%V%W%X%,+Y%Z%`% &.&+&@&#&$&%&&&*                               ",
"    *&7 =&-&;&>&R ,&|%q#'&)&!&~&(@{&]&^&/&(&_&:&<&[&5#}&|&1&2&o ^.                              ",
"    : 3&N@4&5&6&7&8&6@9&3#0&a&b&c&d&e&f&g&h&O$n#i&j&k&l&m&n&p@a                                 ",
"      U+o&p&q&r&Q%s&t&[$u&v&w&x&y&z&A&B&C&3&D&E&F&G&R$H&I&r$J&|.                                ",
"        d K&L&M&N&O&P&Q&R&S&T&U&V&W&X&Y&Z&`& *.*+*|&@*#*$*%*s.                                  ",
"        q$s.=.&***=*-*X%;*>*,*'*)*!*~*{*]*^*/*(*_*:*<*8 [*}*                                    ",
"          `$|*{+6@1*2*3*G&4*k&5*6*7*8*9*0*a*f@b*c*d*e*_.f*                                      ",
"              n n h.g*h*i*!*+*j*k*l*m*n*[%K$P#o*p*q*]@                                          ",
"                r*j.J.s*t*u*v*w*x*y*8&) d@z*q$n ;                                               ",
"                      A*B*C*(@D*E*F*G*H*F @ F                                                   ",
"                            I*{ :.J*K*                                                          "};
