<?xml version="1.0" encoding="UTF-8" standalone="no"?>
<!-- Created with Inkscape (http://www.inkscape.org/) -->
<svg
   xmlns:dc="http://purl.org/dc/elements/1.1/"
   xmlns:cc="http://creativecommons.org/ns#"
   xmlns:rdf="http://www.w3.org/1999/02/22-rdf-syntax-ns#"
   xmlns:svg="http://www.w3.org/2000/svg"
   xmlns="http://www.w3.org/2000/svg"
   xmlns:sodipodi="http://sodipodi.sourceforge.net/DTD/sodipodi-0.dtd"
   xmlns:inkscape="http://www.inkscape.org/namespaces/inkscape"
   id="svg2440"
   sodipodi:version="0.32"
   inkscape:version="0.46"
   width="200"
   height="200"
   version="1.0"
   sodipodi:docname="rlai-critterbot.svg"
   inkscape:output_extension="org.inkscape.output.svg.inkscape"
   inkscape:export-filename="/Users/thomas/Codes/Research/Critterbot/zephyr/zephyr.plugin.critterview/images/critterbot48.png"
   inkscape:export-xdpi="21.6"
   inkscape:export-ydpi="21.6">
  <metadata
     id="metadata2445">
    <rdf:RDF>
      <cc:Work
         rdf:about="">
        <dc:format>image/svg+xml</dc:format>
        <dc:type
           rdf:resource="http://purl.org/dc/dcmitype/StillImage" />
      </cc:Work>
    </rdf:RDF>
  </metadata>
  <defs
     id="defs2443">
    <inkscape:perspective
       sodipodi:type="inkscape:persp3d"
       inkscape:vp_x="0 : 526.18109 : 1"
       inkscape:vp_y="0 : 1000 : 0"
       inkscape:vp_z="744.09448 : 526.18109 : 1"
       inkscape:persp3d-origin="372.04724 : 350.78739 : 1"
       id="perspective2447" />
  </defs>
  <sodipodi:namedview
     inkscape:window-height="1012"
     inkscape:window-width="1523"
     inkscape:pageshadow="2"
     inkscape:pageopacity="0.0"
     guidetolerance="10.0"
     gridtolerance="10.0"
     objecttolerance="10.0"
     borderopacity="1.0"
     bordercolor="#666666"
     pagecolor="#ffffff"
     id="base"
     showgrid="false"
     inkscape:zoom="2.49"
     inkscape:cx="100"
     inkscape:cy="100"
     inkscape:window-x="0"
     inkscape:window-y="22"
     inkscape:current-layer="svg2440" />
  <g
     id="g2451"
     transform="matrix(1.0102825,0,0,1.1029999,-2.4489803,-10.306856)">
    <path
       style="fill:#dce6f7"
       d="M 57,188.5051 C 30.101247,183.87904 11.600051,166.90166 9.0451715,144.5 C 8.5433575,140.1 7.6982757,134.475 7.1672121,132 C -4.487763,77.682479 11.974231,58.770207 94.5,31.668206 C 126.08788,21.294542 190.16789,7.7678892 193.22776,10.82776 C 195.98293,13.582929 193.25657,15.430452 176.76942,21.980783 C 159.66365,28.776891 157.22239,29.988655 160.58333,30.015056 C 161.6375,30.023337 164.21765,30.62819 166.31701,31.359173 C 169.46028,32.453643 171.43547,32.461917 177.50736,31.406044 C 190.72083,29.108286 196.4509,29.156584 196.79578,31.568625 C 197.13692,33.954465 196.66408,34.210212 180,40.653011 C 168.29119,45.179965 144.72337,56.056698 145.32326,56.656596 C 145.50486,56.838189 152.14391,55.669128 160.07672,54.058684 C 183.5844,49.286372 197.09579,47.543584 198.11524,49.152224 C 200.14631,52.357145 198.7413,53.328173 183.44265,59.292677 C 146.3987,73.735052 133.19744,81.931444 136.16719,88.64505 C 137.31868,91.24819 138.35917,95.895583 138.47939,98.97259 C 138.59961,102.0496 139.21593,105.53496 139.84899,106.71783 C 140.48204,107.90071 141,112.09134 141,116.03035 C 141,119.96936 141.73019,125.70394 142.62264,128.77387 C 152.60543,163.11348 104.49786,196.67381 57,188.5051 z M 22.683114,99.8125 C 22.363888,99.014767 22.126931,99.251724 22.078947,100.41667 C 22.035526,101.47083 22.271875,102.06146 22.604167,101.72917 C 22.936458,101.39687 22.971985,100.53437 22.683114,99.8125 z M 119.68311,84.8125 C 119.36389,84.014767 119.12693,84.251724 119.07895,85.416667 C 119.03553,86.470833 119.27187,87.061458 119.60417,86.729167 C 119.93646,86.396875 119.97198,85.534375 119.68311,84.8125 z M 113.34508,72.456872 C 113.01939,71.608151 112.53845,71.128212 112.27633,71.390341 C 112.0142,71.652469 112.09635,72.346877 112.45888,72.933469 C 113.44493,74.52893 114.02126,74.218979 113.34508,72.456872 z M 38.357143,67.5 C 39.182143,66.675 40.758961,66 41.861184,66 C 42.986966,66 44.143411,65.123512 44.5,64 C 44.849126,62.9 45.779451,62 46.567388,62 C 47.355324,62 48,61.55 48,61 C 48,59.250897 42.858423,61.49233 38.674148,65.065536 C 38.028366,65.617008 36.6,66.713553 35.5,67.502303 C 33.797826,68.722839 33.749961,68.941129 35.178571,68.968197 C 36.101786,68.985688 37.532143,68.325 38.357143,67.5 z M 60,58.997514 C 60,58.563834 61.9125,57.223476 64.25,56.01894 C 68.5,53.828874 68.5,53.828874 64.5,54.467755 C 57.850527,55.529809 57,55.991163 57,58.536003 C 57,60.259585 57.423312,60.77479 58.5,60.361626 C 59.325,60.045044 60,59.431194 60,58.997514 z M 66.492921,57.011454 C 66.84326,56.444594 66.441863,56.276947 65.551938,56.618443 C 63.819521,57.283234 63.502551,58 64.940983,58 C 65.458524,58 66.156896,57.555154 66.492921,57.011454 z M 83,54.706923 C 84.375,54.467916 83.25,54.217973 80.5,54.151495 C 76.94014,54.065439 75.932042,54.309832 77,55 C 77.825,55.533156 78.135942,55.976265 77.690983,55.984687 C 77.246024,55.993109 77.176724,56.476928 77.536984,57.059841 C 77.96575,57.753599 78.590607,57.605328 79.346001,56.630582 C 79.9807,55.811577 81.625,54.94593 83,54.706923 z"
       id="path2465" />
    <path
       style="fill:#bbc4cc"
       d="M 57.763386,188.0345 C 29.607495,182.89344 14.088074,167.98684 9.9371261,142.09677 C 2.3359726,94.687279 2.3797823,93.32392 11.523477,92.729562 C 16.5,92.406079 16.5,92.406079 17.054322,88.300179 C 18.148325,80.196818 23.297943,71.547406 31.974538,63.239856 C 34.871218,60.466381 35.054114,60.081398 33,61.081327 C 26.893079,64.054135 21.085523,69.478615 21.042596,72.25 C 21.00831,74.463502 20.538199,75 18.632886,75 C 16.080878,75 12.433861,79.632526 9.5475817,86.540364 C 8.6819726,88.612058 7.717053,90.050386 7.403316,89.736649 C 7.0895789,89.422912 7.7610073,87.068044 8.8953791,84.503608 C 15.840285,68.803497 32.290171,56.763398 63.5,44.537068 C 67.35,43.028846 71.85,41.231113 73.5,40.542107 C 79.674229,37.963877 90.10355,34.770216 90.629925,35.296592 C 90.930122,35.596788 88.591861,36.656899 85.433791,37.652393 C 81.635794,38.849606 79.526692,40.093927 79.204024,41.327811 C 78.824605,42.778715 78.090548,43.06811 75.900655,42.630131 C 73.983165,42.246633 70.305127,43.187756 64.369453,45.580692 C 53.003707,50.162734 51.270395,51.266128 56.700617,50.462526 C 68.45396,48.723187 72.081123,48.418911 78.215039,48.657721 C 89.692136,49.104556 100.92326,52.795881 108.81568,58.715209 C 110.6393,60.08293 112.26845,61.04403 112.436,60.850987 C 113.48717,59.639922 117,50.420568 117,48.872882 C 117,47.74223 117.70703,47 118.78406,47 C 119.76529,47 123.47779,44.829906 127.03406,42.177568 C 130.59033,39.525231 136.0875,35.892205 139.25,34.104178 C 142.4125,32.31615 145,30.204097 145,29.410725 C 145,28.468569 145.95386,28.018584 147.75,28.1134 C 149.2625,28.193243 155.675,26.023125 162,23.290915 C 168.325,20.558706 174.31602,18.028706 175.31338,17.668694 C 178.65768,16.461519 176.00804,14.975959 171.68964,15.636992 C 164.52888,16.733117 168.07691,15.291546 176.5,13.682536 C 197.53277,9.6647755 200.31843,11.955727 182.70186,18.783013 C 157.65302,28.490671 152.96505,31 159.87788,31 C 161.46071,31 164.37125,31.675 166.34576,32.5 C 168.32026,33.325 171.41272,34.067424 173.21788,34.149832 C 176.24315,34.287939 176.28479,34.332266 173.75,34.716254 C 171.80502,35.010894 171,35.718597 171,37.13381 C 171,40.009699 179.6492,37.013667 183,32.977082 C 185.00386,30.563106 195.5,29.728049 195.5,31.982601 C 195.5,32.966178 189.27314,36.016319 177,41.044574 C 157.38276,49.081676 141.83541,56.740802 141.24944,58.656451 C 140.90131,59.794571 142.35825,59.609569 150.25,57.513568 C 153.31445,56.699669 153.72137,57.640364 151.56732,60.55887 C 150.41903,62.114689 149.88308,62.251877 148.86732,61.25 C 143.25868,55.718009 118.4926,70.637642 123.8384,76.327979 C 128.2617,81.036371 130.42578,81.537021 134.15902,78.715602 C 135.99656,77.326867 140.26106,74.58133 143.63568,72.614409 C 147.01031,70.647489 150.03369,68.354597 150.3543,67.519095 C 150.67491,66.683593 152.01996,66 153.3433,66 C 154.66663,66 160.86826,63.822734 167.12468,61.161631 C 173.38111,58.500528 179.2875,56.039651 180.25,55.693016 C 182.25817,54.969793 182.61705,53.015011 180.75,52.969591 C 177.42,52.888583 183.56409,50.912776 189.97213,50.003953 C 204.3095,47.970547 201.58692,51.412058 183.16634,58.606895 C 145.17022,73.44768 131.32739,81.864853 134.57814,88.1511 C 135.52608,89.984224 136.51889,94.519912 136.78437,98.230407 C 137.0669,102.17904 137.83375,105.44706 138.63354,106.11083 C 139.58368,106.89938 140.00005,109.72108 140.00017,115.37244 C 140.00027,119.8426 140.6376,126.875 141.41647,131 C 147.85743,165.11218 102.30761,196.16795 57.763386,188.0345 z M 71.757618,183.84238 C 72.634443,182.96556 73.283896,182.99072 74.435096,183.94613 C 77.428652,186.43057 102.62995,181.61014 103.71836,178.34493 C 104.53759,175.88722 95.110331,171.88967 93.140516,173.85948 C 92.167473,174.83253 86.450294,177.29963 80.435674,179.34194 C 66.041019,184.22975 64.682477,184.84294 68.05,184.93232 C 69.4525,184.96954 71.120928,184.47907 71.757618,183.84238 z M 51.971884,182.25 C 51.893236,180.15204 45.239314,169.5371 44.148496,169.76942 C 43.452728,169.91761 40.954076,170.55488 38.595935,171.18558 C 32.592729,172.7912 31.589798,172.10526 27.057743,163.29419 C 23.20429,155.80245 13.564685,144.10198 12.293355,145.37331 C 10.261546,147.40512 16.080056,159 19.131461,159 C 20.821388,159 21.104902,159.4459 20.626617,161.35154 C 19.607776,165.41093 33.096963,177.08803 39.157219,177.39282 C 40.774714,177.47417 42.503543,178.19672 42.999063,178.99848 C 44.270469,181.05566 52.032556,183.86844 51.971884,182.25 z M 114.46424,174.02046 C 122.21979,169.58319 129,163.26936 129,160.48456 C 129,158.81646 129.64743,158.04682 131.24182,157.81955 C 136.23096,157.10839 143.17404,137.13013 138.75,136.21525 C 137.25675,135.90645 137,136.63626 137,141.18961 C 137,146.52587 137,146.52587 122.5,161 C 105.42392,178.04562 104.32945,179.819 114.46424,174.02046 z M 56,162.5 C 56,159.43277 59.216025,156.03557 62.25,155.89791 C 64.036211,155.81687 63.823429,155.57901 61.217724,154.744 C 58.36468,153.82972 57.673029,153.97384 55.928769,155.84608 C 53.429818,158.52839 52.495132,158.54499 50.670146,155.93946 C 48.755059,153.20529 38,151.79522 38,154.27831 C 38,155.13527 37.726855,156.54823 37.393011,157.41821 C 37.039539,158.33935 37.306742,159 38.032769,159 C 38.718479,159 39.779124,159.65064 40.389757,160.44586 C 41.000391,161.24108 43.975,162.5502 47,163.355 C 55.058814,165.49904 56,165.40963 56,162.5 z M 92.913696,162.9567 C 108.65236,158.59529 108.30081,157.42814 91,156.60338 C 84.125,156.27564 79.175,156.29828 80,156.65369 C 82.150447,157.5801 82.967211,159.11154 82.984687,162.25 C 83.003053,165.54825 83.44758,165.57989 92.913696,162.9567 z M 108.57,144.64698 C 116.76111,137.65844 120.78484,136.63972 124.00874,140.73824 C 126.47686,143.87595 129.66129,141.1815 134.10223,132.19781 C 136.68388,126.97532 136.30315,126.42867 131.48596,128.44142 C 129.43435,129.29864 126.91131,130 125.87922,130 C 124.84713,130 121.36969,132.04471 118.15158,134.5438 C 114.93347,137.04288 108.77111,140.82962 104.45745,142.95877 C 96.154881,147.05677 96.19822,146.8179 103.57,147.85017 C 104.1585,147.93258 106.4085,146.49114 108.57,144.64698 z M 66.530011,145.95144 C 66.971727,145.23673 67.63493,145.28206 68.613028,146.09381 C 71.865739,148.79332 97.021724,143.69644 99.03777,139.92943 C 99.631883,138.81931 100.69989,138.37026 101.96142,138.70016 C 106.09759,139.78179 124.56529,126.26966 123.66357,122.8215 C 123.30249,121.44072 123.84841,120.62793 125.57881,119.97004 C 129.45563,118.49607 138.12122,100.24009 135.39828,99.28317 C 132.05363,98.10776 131.572,97.130414 133.36246,95.151976 C 135.9935,92.244715 132.96465,86.709595 125.61768,80.998648 C 123.79454,79.581482 123.74739,79.895794 124.11768,90.996903 C 124.5,102.45832 124.5,102.45832 121.81797,103.75115 C 120.34285,104.46221 118.19394,106.56816 117.04261,108.43106 C 113.94764,113.43883 102.63068,123.64672 97.024004,126.48784 C 92.848614,128.60367 92.082847,129.44835 91.814541,132.23414 C 91.418644,136.34471 87.56445,137.39977 85.062253,134.08253 C 83.577714,132.11443 83.092994,132.05135 77.488106,133.09676 C 74.194648,133.71105 68.4625,134.00067 64.75,133.74035 C 58,133.26704 58,133.26704 58,138.06209 C 58,140.99103 57.416237,143.44091 56.5,144.35714 C 55.675,145.18214 55,146.11429 55,146.42857 C 55,147.46995 65.869511,147.02015 66.530011,145.95144 z M 43.166809,142.25 C 42.669852,141.2875 41.96793,138.86208 41.606983,136.86019 C 41.1814,134.4998 40.294501,133.04877 39.083867,132.73218 C 37.814893,132.40034 36.997481,130.94456 36.531519,128.18656 C 36.048411,125.32707 35.056827,123.6252 33.17301,122.42232 C 31.702855,121.48357 28.588263,118.69286 26.251696,116.22074 C 22.003392,111.72597 22.003392,111.72597 19.929116,114.36298 C 18.303809,116.42923 16.986728,117 13.844087,117 C 9.3498264,117 9.0064499,118.66882 13.078969,120.71849 C 14.792868,121.58108 15.41268,122.626 15.201038,124.296 C 14.68826,128.34219 30.723267,141.08764 34.502172,139.63754 C 35.330603,139.31964 37.062412,140.15332 38.444378,141.53529 C 41.384533,144.47544 44.564322,144.95669 43.166809,142.25 z M 16.525368,132.93555 C 9.450675,126.2446 8.1288461,126.71936 11.777635,134.6408 C 15.911123,143.6145 15.82389,143.54291 18.96144,140.53694 C 21.743983,137.8711 21.743983,137.8711 16.525368,132.93555 z M 24.197876,102.55151 C 23.500468,97.676025 21,94.858996 21,98.948785 C 21,101.33928 23.79332,108.54001 24.46146,107.87187 C 24.700823,107.63251 24.582211,105.23835 24.197876,102.55151 z M 121,83.940983 C 121,81.435815 120.32407,79.324072 119.14473,78.144734 C 118.12434,77.124338 117.01597,75.199769 116.6817,73.867915 C 116.015,71.211592 109.3964,63 107.92208,63 C 105.30284,63 107.12109,70.18776 110.62728,73.693942 C 113.8082,76.874863 116.20844,81.103365 118.35814,87.313382 C 119.37925,90.263139 121,88.194209 121,83.940983 z M 28,83.50887 C 28,82.898992 27.4375,81.83456 26.75,81.143467 C 24.954825,79.338909 34.835847,69.882806 37.726718,70.638786 C 38.986203,70.968149 39.948274,70.577179 40.330709,69.580568 C 40.664296,68.711256 41.603169,68 42.417093,68 C 46.062256,68 50.598461,60.931794 48.378205,58.711539 C 43.759313,54.092647 21.748387,77.177544 24.068456,84.207424 C 25.339464,88.058617 28,87.585895 28,83.50887 z M 99.810365,61.275336 C 99.185987,53.782227 73.461521,49.693056 57.75,54.589404 C 55.661767,55.240182 55.204886,62.004805 57.25,61.992446 C 60.812471,61.970917 71.60478,59.742966 72.749796,58.792688 C 73.714975,57.99166 74.751377,58.064165 76.618322,59.063324 C 78.947324,60.309768 79.323187,60.223001 80.95267,58.062747 C 82.846283,55.552327 83.911188,55.552637 93.246332,58.06633 C 96.517416,58.947142 97.001941,59.418524 96.4438,61.177072 C 96.038153,62.455151 96.306188,63.579313 97.142988,64.109533 C 99.572711,65.649075 100.12584,65.06135 99.810365,61.275336 z M 157.5,44.706051 C 158.16683,44.038952 157.95954,43.894463 156.87785,44.272376 C 150.56301,46.478602 146.06196,46.230094 144.86784,43.609291 C 144.21396,42.174181 142.97004,41 142.10357,41 C 141.15658,41 141.81205,40.102492 143.7468,38.75 C 148.47568,35.444263 147.99042,33.454075 143.06785,35.965386 C 138.52023,38.285407 137.21844,39.898937 139.00396,41.002449 C 139.79919,41.493928 138.15776,42.393638 134.55518,43.440937 C 130.73334,44.551973 127.38411,46.44829 124.4231,49.177651 C 119.04916,54.13117 118.65618,55.85167 123.6769,52.444517 C 130.34873,47.916888 134.01371,48.275662 136.05957,53.656691 C 136.8761,55.804313 153.23115,48.97664 157.5,44.706051 z M 141,46.416667 C 141,45.545833 141.53438,45.011458 142.1875,45.229167 C 144.04172,45.847241 144.34926,48 142.58333,48 C 141.7125,48 141,47.2875 141,46.416667 z M 143.54271,66.069098 C 142.80316,64.872496 144.68433,63.686871 146.01631,64.510081 C 147.13467,65.201265 146.40048,67 145,67 C 144.51492,67 143.85914,66.581094 143.54271,66.069098 z M 162.5,55.477202 C 165.25,54.770338 168.4,54.202252 169.5,54.214791 C 170.6,54.22733 169.25,54.815933 166.5,55.522798 C 163.75,56.229662 160.6,56.797748 159.5,56.785209 C 158.4,56.77267 159.75,56.184067 162.5,55.477202 z M 173.75,53.337719 C 174.4375,53.060307 175.5625,53.060307 176.25,53.337719 C 176.9375,53.615132 176.375,53.842105 175,53.842105 C 173.625,53.842105 173.0625,53.615132 173.75,53.337719 z M 101,43.416667 C 101,41.65074 103.15276,41.958277 103.77083,43.8125 C 103.98854,44.465625 103.45417,45 102.58333,45 C 101.7125,45 101,44.2875 101,43.416667 z M 92,34.543506 C 92,33.443793 119.79659,25.463258 120.651,26.317666 C 120.85004,26.516709 119.21734,27.217524 117.02276,27.875034 C 114.82819,28.532543 112.56671,29.941086 111.99726,31.005129 C 111.14223,32.602762 110.56008,32.75668 108.65519,31.888756 C 106.87768,31.078866 104.89419,31.315185 100.0091,32.91888 C 93.547824,35.040006 92,35.353978 92,34.543506 z M 177.75,33.337719 C 178.4375,33.060307 179.5625,33.060307 180.25,33.337719 C 180.9375,33.615132 180.375,33.842105 179,33.842105 C 177.625,33.842105 177.0625,33.615132 177.75,33.337719 z M 138,27.5 C 138,26.675 138.675,26 139.5,26 C 140.325,26 141,26.675 141,27.5 C 141,28.325 140.325,29 139.5,29 C 138.675,29 138,28.325 138,27.5 z M 122.8125,25.316886 C 123.53437,25.028015 124.39687,25.063542 124.72917,25.395833 C 125.06146,25.728125 124.47083,25.964474 123.41667,25.921053 C 122.25172,25.873069 122.01477,25.636112 122.8125,25.316886 z M 127.08672,24.579948 C 127.80698,23.859684 147.26587,19.206394 152,18.622326 C 156.5,18.067143 156.5,18.067143 152.16353,19.291585 C 149.77847,19.965028 147.19621,21.378766 146.42517,22.433223 C 145.21722,24.085194 144.70048,24.177663 142.68991,23.101637 C 140.78544,22.082396 139.24032,22.142096 134.28393,23.426428 C 128.04887,25.042093 126.35273,25.313939 127.08672,24.579948 z M 160,17 C 161.375,16.559648 163.625,16.207746 165,16.217995 C 167.2456,16.234733 167.19472,16.314311 164.5,17 C 160.26988,18.076382 156.63899,18.076382 160,17 z"
       id="path2463" />
    <path
       style="fill:#b3bac4"
       d="M 54.5,186.59828 C 41.210915,183.55378 25.966252,175.01496 20.842456,167.74607 C 18.732129,164.75224 18.940751,164.8389 23.527162,168.86125 C 29.663417,174.24284 38.032709,179.16575 39.877055,178.47843 C 40.634436,178.19619 41.81033,178.72593 42.490153,179.65565 C 43.741001,181.36628 51.48444,184.18223 52.405318,183.26135 C 53.286516,182.38015 46.025,169 44.665567,169 C 43.945458,169 41.240182,169.72103 38.653843,170.60228 C 32.781606,172.60315 32.081343,172.10736 27.291486,162.55756 C 25.344577,158.6759 22.12003,153.64389 20.125826,151.37531 C 11.20865,141.23126 5.8620492,132.32092 11.5,137 C 12.325,137.68469 13,138.81494 13,139.51166 C 13,142.53635 16.905579,145.71094 17.599145,143.25 C 17.94791,142.0125 18.518279,140.98569 18.866631,140.9682 C 24.109849,140.70492 16.339782,127 10.947297,127 C 9.5491136,127 5.7884815,119.99359 6.3713673,118.47462 C 7.2255673,116.24861 8.9066255,116.70096 10.181954,119.5 C 10.808446,120.875 11.923798,122 12.660515,122 C 13.401948,122 14,123.0551 14,124.36316 C 14,128.69062 30.813758,142.05292 34.485893,140.64379 C 35.28956,140.33539 36.317248,140.74447 36.769643,141.55286 C 37.612357,143.0587 44.035468,145.40704 43.955867,144.18019 C 43.738869,140.83573 41.064615,134.05209 39.25,132.24307 C 38.0125,131.00938 37,128.87202 37,127.49339 C 37,125.9692 35.922185,124.10787 34.25,122.74429 C 32.7375,121.51093 29.423464,118.33756 26.885477,115.69235 C 22.270953,110.88289 22.270953,110.88289 19.095412,114.05843 C 14.114073,119.03977 7.9840872,117.20319 6.0226949,110.14176 C 2.849848,98.718841 5.6614821,93 14.45034,93 C 17.929131,93 18,92.919571 18,88.971483 C 18,80.459513 27.195771,67.241081 38.56446,59.411165 C 41.554007,57.352185 44,55.343437 44,54.947282 C 44,54.551126 45.2375,53.990758 46.75,53.702019 C 48.2625,53.41328 52.65,52.396412 56.5,51.442312 C 73.955623,47.116489 96.574782,50.313584 107.4924,58.649809 C 113.5498,63.274971 114.76501,62.273644 117.68646,50.25 C 117.98714,49.0125 118.91365,48 119.74538,48 C 120.5771,48 122.98464,46.439722 125.09547,44.532716 C 127.20629,42.625711 132.53927,38.970243 136.94652,36.409455 C 141.35377,33.848667 145.47387,31.133945 146.1023,30.376739 C 146.73072,29.619532 147.92975,29 148.76681,29 C 152.18066,29 177.32027,17.473205 177.78803,15.693442 C 178.04918,14.699836 178.82387,14.10217 179.50957,14.365297 C 180.19526,14.628424 181.14862,14.487208 181.62814,14.051483 C 182.10767,13.615758 184.67379,12.979559 187.33064,12.637706 C 196.06777,11.513513 192.05766,14.176476 173.92233,21.541668 C 149.30172,31.540681 144.64741,34.22381 156.06859,31.834036 C 162.97503,30.388926 170,33.256259 170,37.520324 C 170,38.884146 170.38999,40 170.86665,40 C 172.89222,40 182.62405,35.522629 184,33.957674 C 185.81191,31.896869 195.38184,30.354472 194.75878,32.22367 C 194.5374,32.887803 187.41361,36.169908 178.92814,39.517236 C 159.68624,47.107732 144.56667,54.240977 140,57.8831 C 138.075,59.418375 134.66607,61.828791 132.4246,63.239581 C 124.84131,68.012528 121.75195,71.864251 122.46375,75.658482 C 123.35534,80.411069 121.67546,79.818958 118.18823,74.151482 C 114.732,68.534406 109.19762,62 107.89641,62 C 105.29775,62 107.0752,70.799978 110.38208,74.306291 C 112.24222,76.278618 114.8141,80.425505 116.09736,83.521595 C 118.0889,88.326548 118.75777,89.088297 120.66518,88.723674 C 125.43216,87.812406 125.73219,101.05289 121,103.5 C 119.35,104.35325 118,105.49474 118,106.03664 C 118,108.41337 102.67973,122.89205 96.911966,125.96624 C 92.34227,128.40186 90.936548,129.64936 91.280333,130.96399 C 92.479646,135.55017 88.07174,137.56532 85.482969,133.61435 C 84.093358,131.49354 83.507989,131.32437 80.209916,132.09049 C 78.169462,132.56448 72.394753,132.96302 67.377229,132.97614 C 58.254459,133 58.254459,133 57.757891,138.16787 C 57.430982,141.57009 56.643717,143.78735 55.453663,144.65754 C 53.031186,146.4289 53.793481,146.95134 59.846623,147.66824 C 63.16419,148.06116 65.467053,147.85727 66.393209,147.08863 C 67.450376,146.21126 68.004179,146.19774 68.522661,147.03667 C 69.881816,149.23582 95.391771,144.64701 99,141.55431 C 99.825,140.84718 101.77489,139.96522 103.33309,139.5944 C 109.0952,138.22314 121.65695,128.94468 124.06386,124.28207 C 124.85374,122.75193 126.33412,120.87933 127.3536,120.12073 C 128.37307,119.36214 130.40859,116.21214 131.87697,113.12073 C 135.94216,104.56224 135.90356,104.60275 138.09928,106.58984 C 144.89452,112.73946 134.58469,131.31691 125.19585,129.84074 C 124.26313,129.69409 120.575,131.75759 117,134.4263 C 113.425,137.09501 107.24084,140.83921 103.25742,142.74675 C 95.428924,146.49558 94.987556,147.41174 100.57333,148.31819 C 103.7975,148.8414 104.90487,148.36203 110.65739,143.95297 C 117.90841,138.39537 120.93554,137.83129 123.82134,141.5 C 124.90292,142.875 126.00651,144 126.27377,144 C 127.27434,144 135.2148,132.73863 136.9552,128.85132 C 137.95034,126.6286 139.02795,125.23621 139.34988,125.7571 C 139.67181,126.278 139.02068,128.45825 137.90292,130.6021 C 136.26402,133.74548 135.98826,135.60168 136.47834,140.19137 C 137.08605,145.88273 137.08605,145.88273 122.04302,160.58978 C 107.93948,174.37834 105.09001,178 108.34496,178 C 112.25371,178 130,164.06873 130,161.00027 C 130,160.02842 130.88855,159.0009 131.97456,158.7169 C 133.06057,158.4329 134.91636,156.56121 136.09853,154.55757 C 138.61124,150.29885 139.85413,150.44762 137.63376,154.74134 C 125.45108,178.30004 85.351423,193.66627 54.5,186.59828 z M 94.97784,182.97868 C 106.64836,179.68257 107.2214,178.67985 100,174.19078 C 97.25,172.48129 95,170.38902 95,169.5413 C 95,168.69359 94.592129,168 94.09362,168 C 93.59511,168 93.423221,168.9024 93.711644,170.00533 C 94.581243,173.33068 92.542337,174.57094 77.969532,179.5812 C 70.28629,182.22277 64,184.74673 64,185.19 C 64,186.80759 87.313264,185.1434 94.97784,182.97868 z M 57,162.62244 C 57,158.62615 58.541433,157.11095 63.41077,156.32077 C 68.886162,155.43223 67.687584,154 61.468615,154 C 57.474319,154 55.777279,154.41683 55.361626,155.5 C 54.526249,157.67696 51.242444,157.33923 50.5,155 C 49.349447,151.37493 39.000704,152.13271 36.798242,156.00331 C 34.872469,159.38765 38.526516,161.85679 49.5,164.58625 C 56.859696,166.41684 57,166.3801 57,162.62244 z M 89.5,164.45479 C 101.26044,161.94519 110.614,155.57616 101.64412,156.18561 C 100.46486,156.26573 93.2,156.03993 85.5,155.68383 C 71.097114,155.01774 70.49249,155.11922 77.75,156.98468 C 81.669018,157.99201 82,158.33368 82,161.37188 C 82,165.17675 82.721695,166.20879 84.927665,165.55849 C 85.792449,165.30356 87.85,164.80689 89.5,164.45479 z M 30.474491,142.35769 C 28.220462,140.7095 27.266823,141.41165 28.970806,143.46482 C 29.6615,144.29706 30.693796,144.68924 31.264797,144.33635 C 31.900803,143.94327 31.59465,143.17677 30.474491,142.35769 z M 25.930194,107.7566 C 25.418587,105.97273 25,103.10283 25,101.37905 C 25,97.837858 22.543043,95.056957 20.881954,96.718046 C 19.745886,97.854114 22.075604,107.18124 24.106738,109.62861 C 26.065325,111.98856 26.89857,111.13313 25.930194,107.7566 z M 29,84.404029 C 29,83.146732 28.55,81.839919 28,81.5 C 25.09104,79.702164 33.987998,70.7079 37.743075,71.650364 C 39.091093,71.988695 40,71.760471 40,71.083657 C 40,70.46042 41.0125,69.488249 42.25,68.923278 C 48.880064,65.896371 50,64.883482 50,61.914049 C 50,57.76265 47.587252,57.191898 42.175129,60.063022 C 31.630252,65.657066 20.623309,78.869347 22.803471,83.315962 C 23.392426,84.517183 24.168336,86.545362 24.527715,87.823027 C 25.377427,90.843927 29,88.074523 29,84.404029 z M 40.69459,77.431245 C 41.262517,75.703184 36.189178,73.410822 34.822175,74.777825 C 33.972293,75.627707 34.018478,76.317338 35.004876,77.505875 C 36.429491,79.222431 40.121834,79.173999 40.69459,77.431245 z M 121.8125,69.0625 C 122.0625,68.3125 121.6875,67.9375 120.9375,68.1875 C 120.21563,68.428125 119.42812,69.215625 119.1875,69.9375 C 118.9375,70.6875 119.3125,71.0625 120.0625,70.8125 C 120.78437,70.571875 121.57188,69.784375 121.8125,69.0625 z M 100.48498,61.75 C 99.266674,54.254836 83.788326,49.891448 66.637225,52.208228 C 55.39611,53.726684 52.409929,56.37085 55.837389,61.77113 C 56.768341,63.237931 68.244509,62.009878 71.90288,60.051977 C 73.536006,59.177954 75.077967,59.289626 78.755111,60.548231 C 81.3648,61.441469 85.975,62.424499 89,62.732742 C 92.025,63.040985 95.387628,63.902218 96.472506,64.646592 C 100.16877,67.182731 101.2421,66.407898 100.48498,61.75 z M 82.613963,60.280629 C 80.705048,58.371715 82.151863,56.803383 85.25,57.423193 C 92.961143,58.965876 94.050496,59.272687 94.521258,60.034397 C 95.095732,60.963915 83.536288,61.202954 82.613963,60.280629 z M 123.56794,53.5 C 129.84402,48.709363 136,49.528864 136,55.154988 C 136,57.543548 135.99491,57.544613 142.20599,53.856112 C 145.1177,52.126974 151.1,48.969958 155.5,46.840522 C 162.65869,43.375982 163.07935,43.025934 159.5,43.51192 C 145.19473,45.454217 146.14887,45.521749 144.99439,42.485247 C 144.10745,40.152428 144.266,39.345755 145.9674,37.534702 C 151.61558,31.522492 143.26604,33.996382 134.6125,40.899055 C 132.47437,42.604575 130.31759,44 129.81965,44 C 129.32172,44 126.64931,46.118651 123.88096,48.708114 C 115.25024,56.781147 115.03932,60.010048 123.56794,53.5 z M 17.53122,162.70687 C 17.103156,161.72065 17.033515,160.63315 17.376461,160.29021 C 18.391953,159.27471 19.210549,160.70115 18.743156,162.67173 C 18.328806,164.41868 18.274896,164.42024 17.53122,162.70687 z M 130.49381,83.989987 C 129.6598,82.640521 132.61275,80.264909 142.5,74.331157 C 146.9,71.690534 150.85986,68.960769 151.29969,68.265012 C 151.73952,67.569255 152.8562,67 153.7812,67 C 157.05284,67 182.3036,55.531761 182.74802,53.844023 C 183.18198,52.196049 184.82206,51.720773 194.5,50.438453 C 202.70772,49.350935 198.46326,51.930477 180.5,58.94685 C 161.87127,66.223152 140.83906,76.733973 135.13075,81.620079 C 132.7311,83.674091 130.8825,84.618898 130.49381,83.989987 z M 18.5,73 C 18.160081,72.45 18.358524,72 18.940983,72 C 19.523442,72 20,72.45 20,73 C 20,73.55 19.801558,74 19.559017,74 C 19.316476,74 18.839919,73.55 18.5,73 z M 149,60 C 149,59.45 149.47656,59 150.05902,59 C 150.64148,59 150.83992,59.45 150.5,60 C 150.16008,60.55 149.68352,61 149.44098,61 C 149.19844,61 149,60.55 149,60 z M 76,41 C 76,40.45 76.45,40 77,40 C 77.55,40 78,40.45 78,41 C 78,41.55 77.55,42 77,42 C 76.45,42 76,41.55 76,41 z M 109.5,30 C 109.83992,29.45 110.31648,29 110.55902,29 C 110.80156,29 111,29.45 111,30 C 111,30.55 110.52344,31 109.94098,31 C 109.35852,31 109.16008,30.55 109.5,30 z M 143.5,22 C 143.16008,21.45 143.35852,21 143.94098,21 C 144.52344,21 145,21.45 145,22 C 145,22.55 144.80156,23 144.55902,23 C 144.31648,23 143.83992,22.55 143.5,22 z"
       id="path2461" />
    <path
       style="fill:#a0a7ab"
       d="M 71.229167,186.8125 C 71.845147,184.96456 73.399102,184.8356 75.540437,186.45472 C 77.399008,187.86003 77.328207,187.93803 74.166667,187.9682 C 72.027489,187.98861 70.975139,187.57458 71.229167,186.8125 z M 53.791533,185.94314 C 52.851877,185.39532 52.319527,184.3309 52.608533,183.57776 C 54.920857,177.55194 45.459999,168.15136 39.122775,170.17793 C 32.834625,172.1888 32.507066,171.97022 27.847795,162.65436 C 25.604703,158.16946 22.196083,153.04329 20.273084,151.26287 C 16.334494,147.61631 16.293517,144.01614 20.153425,140.75 C 22.916057,138.41234 23.424921,138.50525 27,142 C 30.545089,145.46543 32.461365,145.87227 31.710251,143 C 31.077672,140.58102 34.420409,140.18889 36.921259,142.38871 C 39.731429,144.86061 45.452169,145.59263 44.530994,143.36243 C 44.107895,142.33809 43.298936,139.76656 42.733307,137.6479 C 42.167679,135.52925 40.646291,132.7372 39.352446,131.44336 C 38.058601,130.14951 36.999779,128.05795 36.999509,126.79545 C 36.999186,125.2827 35.297765,123.03491 32.009697,120.20329 C 27.317631,116.16258 23.054263,110.67943 26.038642,112.52388 C 26.990146,113.11194 27.091323,112.38741 26.475637,109.39456 C 26.034986,107.25255 25.410201,103.475 25.087226,101 C 24.595186,97.229421 24.114844,96.445524 22.123867,96.16392 C 19.931391,95.853817 19.795845,96.085694 20.370192,99.16392 C 22.132379,108.60841 22.110549,109.49122 20.032839,112.80654 C 15.096161,120.6838 6.4321488,115.47548 5.3687304,103.9913 C 4.6171119,95.874343 6.5444923,93.441821 13.605412,93.59589 C 18,93.69178 18,93.69178 18,89.537019 C 18,83.761827 20.249219,80.680246 22.406367,83.5 C 23.247882,84.6 23.950705,86.485942 23.968197,87.690983 C 24.007077,90.36954 25.582657,91.530595 26.68854,89.695621 C 27.134843,88.955077 28.362748,88.030861 29.417217,87.641806 C 30.878472,87.102666 31.056841,86.656841 30.167217,85.767217 C 29.525248,85.125248 29,83.8275 29,82.883333 C 29,81.939167 28.4375,80.969911 27.75,80.729433 C 26.860071,80.418147 27.076114,79.642911 28.5,78.038172 C 31.092492,75.1164 37.12103,70.804269 35.11019,73.309994 C 32.266962,76.852964 32.888425,79.5 36.56346,79.5 C 41.408425,79.5 43.165919,77.395225 40.195331,75.15047 C 37.336822,72.990408 40.986643,69.025003 48.25,66.39935 C 50.227887,65.684358 50.780212,58.600231 48.946432,57.466893 C 47.184288,56.377828 37.750076,61.804737 30.949822,67.81921 C 27.153543,71.176824 25.475347,72.273141 26.846182,70.5 C 29.601995,66.935427 37.333485,60.396028 41.086741,58.455145 C 42.555734,57.695499 44.013012,56.408474 44.325137,55.59509 C 44.637262,54.781706 45.704293,54.114629 46.696318,54.112697 C 47.688343,54.110764 52.55,53.192346 57.5,52.071766 C 62.45,50.951186 67.85,50.08026 69.5,50.136374 C 71.460234,50.203039 70.420469,50.655336 66.5,51.441372 C 54.314942,53.884418 54.851502,53.559722 55.194118,58.283077 C 55.521264,62.793143 63.335443,63.909073 71.438083,60.602852 C 73.893197,59.601061 75.328346,59.709566 79.945695,61.246071 C 83.000563,62.262632 87.3,63.233954 89.5,63.404563 C 91.7,63.575172 94.766795,64.22894 96.3151,64.857381 C 100.40168,66.516082 101.00154,66.309671 100.98635,63.25 C 100.95,55.93046 98.389408,54.319349 82.171928,51.412072 C 74.5,50.036741 74.5,50.036741 81.139978,50.470471 C 90.716761,51.096036 103.66842,55.618946 107.99909,59.850068 C 109.92459,61.731306 110.73221,62.720898 109.7938,62.049161 C 104.1505,58.009528 104.73311,69.680483 110.46068,75.408053 C 112.81572,77.763087 115.30913,81.447198 116.00161,83.594966 C 117.64282,88.685354 118.67773,89.897036 120.89011,89.318485 C 122.3974,88.924321 122.81679,89.646712 123.35335,93.561291 C 124.40069,101.20248 124.21817,102.0275 121.25,103.0688 C 119.69404,103.61466 117.53662,105.71697 116.28124,107.91061 C 113.45914,112.84195 102.99393,122.36959 96.5,125.91967 C 92.645291,128.02694 91.383998,129.32269 90.993569,131.57652 C 90.350804,135.28702 86.532035,136.25166 85.489486,132.96687 C 84.963904,131.31091 84.312547,130.97392 82.653596,131.49966 C 81.469118,131.87504 75.325,132.36569 69,132.58999 C 57.5,132.99782 57.5,132.99782 57.472388,137.44774 C 57.452106,140.71628 56.821166,142.56146 55.095816,144.39801 C 49.317055,150.54922 93.076151,147.766 99.950133,141.54513 C 100.88917,140.69531 102.54288,140 103.62504,140 C 110.83413,140 129.19987,121.8989 133.55123,110.50504 C 134.4975,108.02727 135.86975,106 136.60067,106 C 140.64351,106 141.06245,118.42988 137.14269,122.08169 C 135.96421,123.17961 135,124.50434 135,125.02554 C 135,126.26375 128.41203,129 125.43083,129 C 124.15213,129 120.13522,131.24851 116.50436,133.9967 C 112.87351,136.74488 106.77468,140.45079 102.95141,142.23205 C 94.840389,146.01098 94.261669,147.51223 100.5523,148.45557 C 104.7875,149.09068 105.37541,148.89356 108.99256,145.62569 C 116.89331,138.48783 121.10661,137.48259 123.89628,142.06984 C 125.76316,145.13969 125.76316,145.13969 130.0704,140.03156 C 134.7266,134.50958 135.28976,134.63849 136.33637,141.46588 C 138.43335,155.14513 98.626638,182.31354 95.388794,169.41294 C 94.497405,165.86136 93.165782,166.47677 92.810365,170.60456 C 92.5,174.20912 92.5,174.20912 78,179.38946 C 69.21825,182.52687 63.598591,185.04899 63.75,185.7849 C 64.058209,187.28292 56.301026,187.40618 53.791533,185.94314 z M 57.203582,162.61811 C 56.986433,160.75807 57.298673,158.93344 57.897448,158.56338 C 60.733578,156.81056 69.519384,155.24697 71.755432,156.09712 C 73.061554,156.5937 75.360904,157 76.8651,157 C 80.503812,157 82,158.68646 82,162.7879 C 82,166.80817 84.872244,166.73235 97.463784,162.37968 C 111.69977,157.45857 109.60584,156.5473 80.507527,155.0004 C 56.717522,153.7357 55.897856,153.7545 54.484417,155.59728 C 53.059838,157.45459 52.982949,157.44773 51.262505,155.3096 C 48.715407,152.14414 37.771521,151.49618 37.167285,154.47507 C 36.946943,155.56135 36.031664,156.99172 35.133332,157.65365 C 33.652515,158.74478 33.686753,158.91784 35.5,159.50702 C 36.6,159.86444 38.844193,160.88505 40.487096,161.77503 C 43.593947,163.45806 51.996306,165.7675 55.549199,165.91495 C 57.300685,165.98764 57.541038,165.50867 57.203582,162.61811 z M 81.25,186.31067 C 82.2125,186.05915 83.7875,186.05915 84.75,186.31067 C 85.7125,186.5622 84.925,186.768 83,186.768 C 81.075,186.768 80.2875,186.5622 81.25,186.31067 z M 88.8125,185.31689 C 89.534375,185.02802 90.396875,185.06354 90.729167,185.39583 C 91.061458,185.72813 90.470833,185.96447 89.416667,185.92105 C 88.251724,185.87307 88.014767,185.63611 88.8125,185.31689 z M 92.8125,184.31689 C 93.534375,184.02802 94.396875,184.06354 94.729167,184.39583 C 95.061458,184.72813 94.470833,184.96447 93.416667,184.92105 C 92.251724,184.87307 92.014767,184.63611 92.8125,184.31689 z M 99.433686,182.50382 C 101.59721,181.66435 104.10765,180.30757 105.01243,179.48875 C 105.91721,178.66994 107.4319,178 108.3784,178 C 109.32491,178 111.42697,177.31344 113.04966,176.47432 C 114.67235,175.6352 116,175.21448 116,175.53939 C 116,176.41319 101.94819,182.74906 98.483759,183.43735 C 96.19128,183.8928 96.41136,183.67652 99.433686,182.50382 z M 38.5,180 C 38.160081,179.45 38.556966,179 39.381966,179 C 40.206966,179 41.160081,179.45 41.5,180 C 41.839919,180.55 41.443034,181 40.618034,181 C 39.793034,181 38.839919,180.55 38.5,180 z M 120,172.68856 C 120,172.44236 122.1375,170.52164 124.75,168.42029 C 127.3625,166.31894 128.6,165.6383 127.5,166.90775 C 125.43413,169.29187 120,173.48036 120,172.68856 z M 131,161.05902 C 131,160.54148 131.45,159.83992 132,159.5 C 132.55,159.16008 133,159.58352 133,160.44098 C 133,161.29844 132.55,162 132,162 C 131.45,162 131,161.57656 131,161.05902 z M 25.44113,138.44483 C 23.577105,136.95144 23.589374,136.93298 25.75,137.98002 C 26.9875,138.57971 28,139.27953 28,139.53518 C 28,140.3004 27.481392,140.07942 25.44113,138.44483 z M 9.0680942,124.09563 C 6.8867798,121.03226 6.2938757,117 8.0247508,117 C 8.5883638,117 9.4606064,118.08129 9.9630677,119.40286 C 10.465529,120.72443 11.354391,122.10099 11.938317,122.46188 C 13.245944,123.27004 13.352611,127 12.068094,127 C 11.555546,127 10.205546,125.69303 9.0680942,124.09563 z M 131,83.235451 C 131,82.822215 133.8125,80.625369 137.25,78.353571 C 144.63606,73.472222 146,72.702451 146,73.415303 C 146,73.708638 144.70993,74.615762 143.13317,75.431133 C 141.55642,76.246504 138.18142,78.505088 135.63317,80.450208 C 133.08493,82.395328 131,83.648687 131,83.235451 z M 119.75,75.530467 C 118.7875,74.206791 118,72.817839 118,72.443907 C 118,72.069975 116.65,70.226465 115,68.347219 C 111.04492,63.84263 111.03468,63.876256 118.16712,57.940585 C 128.79783,49.093618 133.08254,48.109099 135.30696,54.002278 C 136.55527,57.309435 137.11049,57.518717 140.31574,55.890286 C 143.58095,54.231393 136.02261,60.745864 132.5,62.626605 C 130.85,63.50755 128.2412,65.406547 126.70267,66.846597 C 124.52401,68.885799 123.72277,69.169465 123.07984,68.129191 C 122.43766,67.090114 121.78198,67.046312 120.12717,67.931939 C 117.55196,69.310149 117.34456,70.998898 119.75,71.002943 C 121.06815,71.00516 121.51851,71.868855 121.57503,74.502943 C 121.61629,76.426324 121.61629,77.985859 121.57503,77.968575 C 121.53376,77.951291 120.7125,76.854143 119.75,75.530467 z M 149.5,70.566778 C 151.15,69.194609 153.3625,68.055743 154.41667,68.035963 C 156.98432,67.987785 155.89537,68.926234 150.76161,71.185871 C 146.5,73.061629 146.5,73.061629 149.5,70.566778 z M 163,64.5 C 164.375,63.713979 165.95,63.070871 166.5,63.070871 C 167.05,63.070871 166.375,63.713979 165,64.5 C 163.625,65.286021 162.05,65.929129 161.5,65.929129 C 160.95,65.929129 161.625,65.286021 163,64.5 z M 168,62.695358 C 168,62.410118 171.20376,60.919788 175.11946,59.383515 C 179.03516,57.847241 182.71537,55.827376 183.29769,54.894925 C 183.88002,53.962473 184.95126,53.427803 185.67823,53.706768 C 186.40521,53.985733 187,53.765065 187,53.216395 C 187,52.667724 188.4625,52.013152 190.25,51.761789 C 192.0375,51.510427 194.2875,50.963049 195.25,50.545394 C 196.33652,50.073922 197,50.217613 197,50.924396 C 197,51.550501 196.2125,52.314451 195.25,52.622062 C 194.2875,52.929673 192.6,53.571612 191.5,54.048592 C 190.4,54.525572 185.225,56.551431 180,58.5505 C 174.775,60.549569 169.9375,62.416652 169.25,62.699574 C 168.5625,62.982496 168,62.980599 168,62.695358 z M 83.75,60.304452 C 81.810681,59.804551 81.454776,58.455001 83.008949,57.494469 C 84.476234,56.587637 88.174451,57.976648 87.742547,59.272359 C 87.300266,60.599203 86.098571,60.909847 83.75,60.304452 z M 143,54.400487 C 143,53.974633 161.309,44.768373 164.22154,43.729725 C 168.18257,42.317172 163.14995,42.203162 156.07541,43.545181 C 144.78283,45.687345 142.18733,43.554158 147.54296,36.53256 C 153.39196,28.86413 169.93004,30.547899 169.98469,38.817388 C 169.99752,40.760014 170.36386,41.021116 172.25,40.431948 C 177.4558,38.805823 185,35.032589 185,34.055029 C 185,33.474763 186.15458,33 187.56574,33 C 188.9769,33 190.97459,32.548783 192.00505,31.997296 C 193.03552,31.445808 194.11408,31.375563 194.40185,31.841195 C 194.68963,32.306827 188.75444,35.06032 181.21254,37.960067 C 173.67064,40.859815 161.9875,45.84917 155.25,49.047524 C 148.5125,52.245877 143,54.65471 143,54.400487 z M 119.07404,50.866362 C 119.20663,48.419588 129.27636,41.276012 147,31.055385 C 147.825,30.579636 153.45,28.16109 159.5,25.680839 C 176.11916,18.867668 180.44075,16.794832 182,14.888796 C 182.275,14.552633 184.75,13.988645 187.5,13.635489 C 193.82328,12.82345 190.72605,14.459437 172.95993,21.31568 C 157.62339,27.234307 138.75455,36.405989 134.73803,39.894407 C 132.95712,41.441168 130.44769,43.259833 129.16153,43.935884 C 127.87537,44.611935 125.06287,46.75529 122.91153,48.698896 C 120.76019,50.642502 119.03332,51.617862 119.07404,50.866362 z"
       id="path2459" />
    <path
       style="fill:#59b25a"
       d="M 50.945362,177 C 46.284391,167.19207 46.017078,167.02423 39,169.5 C 36.661701,170.325 34.39642,171 33.966043,171 C 32.813752,171 26,158.24183 26,156.08427 C 26,155.06848 24.425,153.03607 22.5,151.5678 C 19.704787,149.43578 19,148.21076 19,145.48429 C 19,140.52296 21.979479,139.14971 25.554766,142.46317 C 28.884039,145.54864 31.705086,146.48965 33.402506,145.08091 C 34.318711,144.32053 36.287022,144.29585 39.991008,144.99829 C 47.31704,146.38765 47.235494,146.43213 45.001943,142.26481 C 43.900874,140.21045 43,137.33721 43,135.87982 C 43,134.15685 42.125566,132.65707 40.5,131.59196 C 38.962956,130.58485 38,129.01322 38,127.51174 C 38,126.16856 36.571115,123.44218 34.8247,121.45313 C 26.394823,111.85203 22.541761,89 29.352804,89 C 31.409102,89 33.881582,85.803186 32.25,85.254045 C 28.56956,84.015321 32.309739,81.048103 37.595012,81.013655 C 41.204629,80.990128 43.585215,77.462001 41.995607,74.491791 C 40.44766,71.599426 40.465282,71.574123 46.161375,68.510093 C 50.5,66.176268 50.5,66.176268 50.5,60.354372 C 50.5,55.605732 50.82261,54.469877 52.25,54.192913 C 53.668772,53.917622 54.002898,54.577005 54.015313,57.676676 C 54.040967,64.082127 54.601269,64.384301 64.085991,63.107857 C 68.665709,62.491523 72.803771,61.596229 73.281686,61.118314 C 73.773599,60.626401 76.234114,61.041044 78.952524,62.073959 C 81.593571,63.077477 86.172181,64.217904 89.127213,64.608241 C 92.082246,64.998578 95.938427,65.917387 97.696503,66.65004 C 101.51175,68.239987 102.17019,67.511173 101.84822,62.05457 C 101.57961,57.50213 102.3402,56.207525 104.31871,57.849544 C 105.32209,58.682275 105.58275,60.98137 105.29856,66.492045 C 104.93727,73.49763 105.0472,74 106.94149,74 C 109.2447,74 113.62815,79.983688 116.02521,86.399828 C 116.97874,88.952115 118.29061,90.622698 119.52521,90.856842 C 122.2481,91.373243 122.96687,92.805421 122.98469,97.75 C 123.00168,102.46743 119.77695,104.07905 118.68394,99.899384 C 117.85923,96.745689 116,98.622481 116,102.60868 C 116,109.31036 108.11481,118.33831 96.161585,125.32218 C 91.821218,127.85812 90.383317,129.29573 90,131.48253 C 89.333026,135.28758 87.256277,135.80426 85.992254,132.47963 C 85.221282,130.45182 84.548277,129.97871 83.236102,130.54211 C 82.281246,130.9521 75.9875,131.50217 69.25,131.76449 C 57,132.24144 57,132.24144 57,136.18646 C 57,141.09723 55.72587,143.55436 52.224859,145.39522 C 45.661154,148.84647 74.782806,149.83059 86.954625,146.56887 C 94.022394,144.67489 96,145.50862 96,150.38226 C 96,152.26091 96.078308,152.27517 97.290654,150.61718 C 98.402914,149.09608 98.958394,149.02392 101.30945,150.09514 C 103.75273,151.20837 104.32279,151.07597 106.7688,148.82721 C 116.57891,139.80821 121.77056,138.27578 123.58338,143.864 C 124.66676,147.20364 124.66676,147.20364 129.30251,141.90428 C 134.50005,135.96272 134.51815,135.96153 135.43026,141.5 C 136.43355,147.5921 106.99173,177.09855 102.34953,174.65336 C 92.275856,169.34724 92.582056,165.50423 103.46919,160.6009 C 111.20956,157.1148 115.714,153.63744 109.36015,156.05317 C 107.32326,156.8276 106.32845,156.70223 105.00476,155.50431 C 103.99769,154.59292 102.56312,154.23041 101.53094,154.6265 C 100.56388,154.9976 89.658068,154.7103 77.295798,153.98807 C 58.287402,152.87756 54.688022,152.88676 53.970522,154.0477 C 53.269337,155.18224 52.794139,155.12367 51.232309,153.71024 C 48.154799,150.92513 37.782913,151.30451 36.475715,154.25 C 35.752262,155.88015 34.722722,156.44814 32.738587,156.31174 C 28.208012,156.00028 29.615066,157.67158 36.75,161.07648 C 47.77378,166.3372 63.152905,169.03641 59.57463,165.08247 C 54.570368,159.55282 61.961483,155.92912 74.651593,157.69057 C 81.195055,158.59883 83.501531,162.60149 79.335788,165.81951 C 77.442347,167.28219 84.04753,167.04233 89.606328,165.44655 C 91.418319,164.92638 91.797359,165.36384 92.318806,168.57714 C 93.135223,173.60813 93.471545,173.34704 80.740028,177.56601 C 74.558012,179.6146 67.081506,182.35031 64.12557,183.64536 C 55.944382,187.22969 55.763398,187.13844 50.945362,177 z M 94.770833,117.1875 C 94.991944,116.52417 94.247076,116 93.083333,116 C 91.006008,116 90.383401,117.05007 91.6875,118.35417 C 92.613972,119.28064 94.283719,118.64884 94.770833,117.1875 z M 36,110.5 C 36,109.675 35.325,109 34.5,109 C 33.675,109 33,109.675 33,110.5 C 33,111.325 33.675,112 34.5,112 C 35.325,112 36,111.325 36,110.5 z M 124.94632,127.96683 C 123.85883,127.29472 124.25541,126.26565 126.84267,123.04616 C 128.64194,120.8072 131.45093,116.28087 133.08487,112.98766 C 137.13283,104.82895 139,105.28606 139,114.43576 C 139,117.60676 138.3556,119.40327 136.5,121.4055 C 135.125,122.88915 134,124.47737 134,124.93489 C 134,125.39241 133.2125,126.03687 132.25,126.36702 C 131.2875,126.69718 129.55981,127.38341 128.41069,127.89199 C 127.24279,128.40887 125.71497,128.44188 124.94632,127.96683 z M 7.6063086,120.41644 C 7.2325827,119.44253 7.4560704,118.98536 8.1868198,119.22894 C 9.6816573,119.72722 10.504714,122 9.1903221,122 C 8.6533326,122 7.9405266,121.2874 7.6063086,120.41644 z M 10.26137,114.47052 C 5.781171,111.33246 4.3713606,98.254151 8.2225062,95.556704 C 13.458957,91.888951 18.080844,94.111592 19.978444,101.21007 C 22.751653,111.584 17.117467,119.27271 10.26137,114.47052 z M 19.975249,92.4349 C 18.757959,89.233186 18.757471,86.932056 19.973672,85.008359 C 21.370341,82.799213 22.658439,84.744543 23.444418,90.25 C 24.218905,95.674953 21.788967,97.20534 19.975249,92.4349 z M 29,79.059017 C 29,78.541476 29.45,77.839919 30,77.5 C 30.55,77.160081 31,77.583524 31,78.440983 C 31,79.298442 30.55,80 30,80 C 29.45,80 29,79.576558 29,79.059017 z M 115.2,67.8 C 112.38044,64.98044 116.00995,60.035461 125.55375,53.693685 C 131.7875,49.551406 136.12765,51.370941 134.59351,57.483455 C 134.00147,59.842309 125.51319,66 122.85358,66 C 122.04435,66 120.50875,66.660688 119.44113,67.468197 C 117.0503,69.276532 116.70365,69.303651 115.2,67.8 z M 146.66667,43.333333 C 145.46657,42.133236 145.96341,39.968504 148.10323,37.074244 C 152.90313,30.582034 169.80285,31.575165 168.80254,38.290662 C 168.39787,41.007427 148.80428,45.47095 146.66667,43.333333 z"
       id="path2457" />
    <path
       style="fill:#596060"
       d="M 50.945362,177 C 46.284391,167.19207 46.017078,167.02423 39,169.5 C 36.661701,170.325 34.39642,171 33.966043,171 C 32.813752,171 26,158.24183 26,156.08427 C 26,155.06848 24.425,153.03607 22.5,151.5678 C 19.704787,149.43578 19,148.21076 19,145.48429 C 19,140.52296 21.979479,139.14971 25.554766,142.46317 C 28.884039,145.54864 31.705086,146.48965 33.402506,145.08091 C 34.318711,144.32053 36.287022,144.29585 39.991008,144.99829 C 47.31704,146.38765 47.235494,146.43213 45.001943,142.26481 C 43.900874,140.21045 43,137.33721 43,135.87982 C 43,134.15685 42.125566,132.65707 40.5,131.59196 C 38.962956,130.58485 38,129.01322 38,127.51174 C 38,126.16856 36.711572,123.59143 35.136826,121.7848 C 33.296807,119.67382 32.373653,117.60663 32.553493,116 C 32.707405,114.625 32.870833,113.1312 32.916667,112.68045 C 32.9625,112.2297 34.0125,112.00615 35.25,112.18368 C 36.90133,112.42058 37.437861,113.09726 37.266463,114.72686 C 37.121915,116.10117 37.806995,117.36152 39.06433,118.03443 C 40.181603,118.63237 41.523575,120.24691 42.046491,121.62228 C 42.918825,123.91669 43.353719,124.0695 47.318975,123.47488 C 51.091747,122.90911 52.058387,123.17825 54.928961,125.59368 C 60.099979,129.9448 82.866258,129.11806 84.632615,124.51501 C 84.958775,123.66505 86.432731,123 87.990357,123 C 89.925733,123 90.925165,122.39417 91.289749,121 C 91.850662,118.85507 95.567026,118.20108 96.21131,120.13393 C 96.459054,120.87716 97.152254,120.70489 98.223214,119.63393 C 99.121875,118.73527 100.39867,118 101.06054,118 C 101.7224,118 103.83256,117.03054 105.74976,115.84564 C 109.1949,113.71642 109.22274,113.71528 108.13492,115.7479 C 106.99624,117.87555 100.11188,123.17713 94.000124,126.63298 C 91.619115,127.9793 90.340365,129.52675 90.000124,131.47348 C 89.332926,135.29094 87.257026,135.80623 85.988332,132.46931 C 85.154922,130.27728 84.548947,129.90703 82.732179,130.47984 C 81.504481,130.86692 75.2125,131.42277 68.75,131.71506 C 57,132.24651 57,132.24651 57,136.189 C 57,141.09728 55.725421,143.5546 52.224859,145.39522 C 45.661154,148.84647 74.782806,149.83059 86.954625,146.56887 C 94.022394,144.67489 96,145.50862 96,150.38226 C 96,152.26091 96.078308,152.27517 97.290654,150.61718 C 98.402914,149.09608 98.958394,149.02392 101.30945,150.09514 C 103.75273,151.20837 104.32279,151.07597 106.7688,148.82721 C 116.57891,139.80821 121.77056,138.27578 123.58338,143.864 C 124.66676,147.20364 124.66676,147.20364 129.30251,141.90428 C 134.50005,135.96272 134.51815,135.96153 135.43026,141.5 C 136.43355,147.5921 106.99173,177.09855 102.34953,174.65336 C 92.275856,169.34724 92.582056,165.50423 103.46919,160.6009 C 111.20956,157.1148 115.714,153.63744 109.36015,156.05317 C 107.32326,156.8276 106.32845,156.70223 105.00476,155.50431 C 103.99769,154.59292 102.56312,154.23041 101.53094,154.6265 C 100.56388,154.9976 89.658068,154.7103 77.295798,153.98807 C 58.287402,152.87756 54.688022,152.88676 53.970522,154.0477 C 53.269337,155.18224 52.794139,155.12367 51.232309,153.71024 C 48.154799,150.92513 37.782913,151.30451 36.475715,154.25 C 35.752262,155.88015 34.722722,156.44814 32.738587,156.31174 C 28.208012,156.00028 29.615066,157.67158 36.75,161.07648 C 47.77378,166.3372 63.152905,169.03641 59.57463,165.08247 C 54.570368,159.55282 61.961483,155.92912 74.651593,157.69057 C 81.195055,158.59883 83.501531,162.60149 79.335788,165.81951 C 77.442347,167.28219 84.04753,167.04233 89.606328,165.44655 C 91.418319,164.92638 91.797359,165.36384 92.318806,168.57714 C 93.135223,173.60813 93.471545,173.34704 80.740028,177.56601 C 74.558012,179.6146 67.081506,182.35031 64.12557,183.64536 C 55.944382,187.22969 55.763398,187.13844 50.945362,177 z M 124.94632,127.96683 C 123.85883,127.29472 124.25541,126.26565 126.84267,123.04616 C 128.64194,120.8072 131.45093,116.28087 133.08487,112.98766 C 137.13283,104.82895 139,105.28606 139,114.43576 C 139,117.60676 138.3556,119.40327 136.5,121.4055 C 135.125,122.88915 134,124.47737 134,124.93489 C 134,125.39241 133.2125,126.03687 132.25,126.36702 C 131.2875,126.69718 129.55981,127.38341 128.41069,127.89199 C 127.24279,128.40887 125.71497,128.44188 124.94632,127.96683 z M 7.6063086,120.41644 C 7.2325827,119.44253 7.4560704,118.98536 8.1868198,119.22894 C 9.6816573,119.72722 10.504714,122 9.1903221,122 C 8.6533326,122 7.9405266,121.2874 7.6063086,120.41644 z M 10.26137,114.47052 C 5.781171,111.33246 4.3713606,98.254151 8.2225062,95.556704 C 13.458957,91.888951 18.080844,94.111592 19.978444,101.21007 C 22.751653,111.584 17.117467,119.27271 10.26137,114.47052 z M 111.85987,110.30569 C 113.13476,107.87496 115,106.37826 115,107.786 C 115,108.28321 114.03452,109.54727 112.85449,110.59501 C 110.72388,112.48677 110.71697,112.48476 111.85987,110.30569 z M 118.65,99 C 118.29809,97.240437 117.41944,96 116.525,96 C 115.68625,96 115,95.55 115,95 C 115,94.45 115.45,94 116,94 C 116.55,94 117,93.325 117,92.5 C 117,90.468749 121.60898,90.538646 122.39301,92.581787 C 123.82748,96.319958 123.06276,102 121.125,102 C 119.84167,102 119.06067,101.05333 118.65,99 z M 19.975249,92.4349 C 18.757959,89.233186 18.757471,86.932056 19.973672,85.008359 C 21.370341,82.799213 22.658439,84.744543 23.444418,90.25 C 24.218905,95.674953 21.788967,97.20534 19.975249,92.4349 z M 32,83.116631 C 32,82.630779 32.925718,81.991182 34.057151,81.695306 C 35.745119,81.253892 35.902608,81.412424 34.934706,82.578674 C 33.614428,84.169512 32,84.465451 32,83.116631 z M 29,79.059017 C 29,78.541476 29.45,77.839919 30,77.5 C 30.55,77.160081 31,77.583524 31,78.440983 C 31,79.298442 30.55,80 30,80 C 29.45,80 29,79.576558 29,79.059017 z M 106.25,78.296769 C 104.18381,77.530732 104.7516,74 106.94098,74 C 108.00852,74 109.18677,74.493183 109.55931,75.095961 C 110.41863,76.486376 107.91041,78.912363 106.25,78.296769 z M 42,72 C 42,71.45 42.476558,71 43.059017,71 C 43.641476,71 43.839919,71.45 43.5,72 C 43.160081,72.55 42.683524,73 42.440983,73 C 42.198442,73 42,72.55 42,72 z M 47.236294,70.836294 C 46.367586,69.967586 46.343343,69.291224 47.146238,68.323794 C 48.915078,66.192472 51.180967,66.715487 50.819551,69.171672 C 50.438944,71.758281 48.881705,72.481705 47.236294,70.836294 z M 102.6171,69.189467 C 101.83315,67.921007 101.5677,58.098963 102.29765,57.369018 C 104.62026,55.04641 105.80254,59.849936 105.09883,68.75 C 104.98807,70.150946 103.38659,70.434536 102.6171,69.189467 z M 115.2,67.8 C 112.38044,64.98044 116.00995,60.035461 125.55375,53.693685 C 131.7875,49.551406 136.12765,51.370941 134.59351,57.483455 C 134.00147,59.842309 125.51319,66 122.85358,66 C 122.04435,66 120.50875,66.660688 119.44113,67.468197 C 117.0503,69.276532 116.70365,69.303651 115.2,67.8 z M 50.833333,62.073324 C 50.741667,59.832996 50.629167,57.218663 50.583333,56.263695 C 50.5375,55.308727 51.2875,54.375731 52.25,54.190371 C 53.665365,53.917797 54.03187,54.632253 54.166667,57.926676 C 54.258333,60.167004 54.370833,62.781337 54.416667,63.736305 C 54.4625,64.691273 53.7125,65.624269 52.75,65.809629 C 51.334635,66.082203 50.96813,65.367747 50.833333,62.073324 z M 84,65 C 80.638994,63.923618 84.269882,63.923618 88.5,65 C 91.194715,65.685689 91.245596,65.765267 89,65.782005 C 87.625,65.792254 85.375,65.440352 84,65 z M 74,62 C 74,61.45 74.476558,61 75.059017,61 C 75.641476,61 75.839919,61.45 75.5,62 C 75.160081,62.55 74.683524,63 74.440983,63 C 74.198442,63 74,62.55 74,62 z M 146.66667,43.333333 C 145.46657,42.133236 145.96341,39.968504 148.10323,37.074244 C 152.90313,30.582034 169.80285,31.575165 168.80254,38.290662 C 168.39787,41.007427 148.80428,45.47095 146.66667,43.333333 z"
       id="path2455" />
    <path
       style="fill:#191a1b"
       d="M 52.137592,176.4309 C 47.20244,166.14577 47.092793,166.41367 55.581785,168.01543 C 62.02823,169.23179 76.835505,168.94664 86.604055,167.41803 C 90.812995,166.7594 93.557582,169.84242 91.020708,172.37929 C 90.316266,173.08373 70.584508,180.37699 57.910493,184.6175 C 56.71092,185.01886 55.294726,183.01054 52.137592,176.4309 z M 100.25,172.01096 C 98.4625,170.9211 96.9325,169.34778 96.85,168.5147 C 96.7675,167.68161 96.655,166.52687 96.6,165.94861 C 96.545,165.37034 99.111006,163.83602 102.30224,162.53901 C 111.69401,158.72191 118.78165,153.97299 126.63082,146.23818 C 130.68387,142.24417 134,139.61987 134,140.40639 C 134,141.19291 134.27926,142.56417 134.62058,143.45364 C 135.2411,145.07068 106.78034,173.90006 104.5,173.96434 C 103.95,173.97984 102.0375,173.10082 100.25,172.01096 z M 33.177198,168.67016 C 31.670497,166.78485 27.826577,158.84009 28.22725,158.43942 C 28.746571,157.9201 42.983151,165.36044 42.992386,166.156 C 43.009184,167.60319 34.140087,169.87501 33.177198,168.67016 z M 60.010569,163.51273 C 57.211367,160.1399 59.407996,159.19439 69.679999,159.35063 C 78.867514,159.49038 79.519481,159.63652 79.802469,161.61965 C 80.309282,165.1713 62.778671,166.84809 60.010569,163.51273 z M 30,154.27522 C 26.526936,152.96268 20,147.53077 20,145.95292 C 20,143.13363 22.983692,141.22163 23.615137,143.63628 C 23.958063,144.94764 25.687949,146.04877 28.814523,146.94587 C 35.174422,148.77071 35.366496,148.93755 33.492111,151.00872 C 31.970338,152.69026 31.983473,152.89421 33.676969,153.87903 C 35.779419,155.10167 32.983879,155.40289 30,154.27522 z M 106.67186,153.9835 C 107.31638,153.30853 107.62652,152.1903 107.36107,151.49854 C 106.76937,149.95661 111.59513,146 114.06747,146 C 115.05624,146 116.15087,145.1 116.5,144 C 117.23847,141.67329 120.22581,141.36223 121.94447,143.43309 C 123.27859,145.04061 122.10736,146.55711 115.96449,151.176 C 112.29236,153.93711 104.45517,156.30489 106.67186,153.9835 z M 74.5,152.86199 C 67.35,152.39732 56.965043,151.75026 51.422317,151.42408 C 45.879592,151.0979 40.80185,150.49557 40.138448,150.08557 C 38.311623,148.95653 39.909497,145.8365 41.978272,146.4931 C 53.873969,150.26865 70.74455,150.93864 84.272915,148.17278 C 94.152592,146.15289 94,146.11376 94,150.66667 C 94,154.4943 96.055667,154.26287 74.5,152.86199 z M 47.076589,143.07659 C 45.962445,141.96244 44.814426,139.91443 44.525436,138.52544 C 44.236446,137.13645 43.766427,134.875 43.480948,133.5 C 43.195469,132.125 42.343614,131 41.587937,131 C 39.902511,131 39,128.825 39,124.76322 C 39,121.77389 39.053507,121.73845 40.960715,123.46445 C 42.507999,124.86472 43.860809,125.098 47.376478,124.57079 C 52.660259,123.77844 59.430076,128.56825 56.483148,131.01399 C 55.489323,131.83879 55.228004,133.43542 55.610518,136.34568 C 56.491457,143.04809 51.212063,147.21206 47.076589,143.07659 z M 49.5,129 C 49.160081,128.45 48.431966,128 47.881966,128 C 47.331966,128 47.160081,128.45 47.5,129 C 47.839919,129.55 48.568034,130 49.118034,130 C 49.668034,130 49.839919,129.55 49.5,129 z M 86.5,131 C 86.08125,129.68063 84.952285,128.97843 83.182612,128.93661 C 80.670435,128.87725 80.636448,128.81817 82.647673,128.00669 C 83.828893,127.5301 85.09295,126.65862 85.45669,126.07008 C 85.820429,125.48153 87.351476,125 88.859017,125 C 90.366558,125 92.100625,124.49938 92.7125,123.8875 C 93.324375,123.27563 94.426875,122.99823 95.1625,123.27107 C 96.095184,123.617 95.894668,123.99973 94.5,124.53557 C 91.124828,125.83236 89,128.19648 89,130.65499 C 89,133.52049 87.371311,133.74526 86.5,131 z M 66,130 C 66,128.7298 69.034506,128.7298 71,130 C 72.138257,130.7356 71.716223,130.97307 69.25,130.98469 C 67.4625,130.99311 66,130.55 66,130 z M 76.269032,129.30701 C 77.241999,129.05347 78.591999,129.07014 79.269032,129.34406 C 79.946064,129.61799 79.15,129.82543 77.5,129.80505 C 75.85,129.78467 75.296064,129.56055 76.269032,129.30701 z M 133.11886,120.09368 C 131.97874,119.37236 132.14192,118.32549 134.05388,114.09496 C 136.804,108.00987 138.17917,108.58838 137.20205,115.41932 C 136.47681,120.48933 135.50417,121.6028 133.11886,120.09368 z M 10.543266,112.63417 C 7.7317455,109.82265 6.005269,99.903504 7.9248498,97.59055 C 11.670807,93.076949 17.291396,95.128798 18.92218,101.60523 C 21.383921,111.38169 16.162973,118.25388 10.543266,112.63417 z M 120,97.940983 C 120,96.156282 120.41658,95.139425 121,95.5 C 121.55,95.839919 122,97.216476 122,98.559017 C 122,99.901558 121.55,101 121,101 C 120.45,101 120,99.623442 120,97.940983 z M 116.49435,65.990863 C 116.22878,65.561151 116.73059,64.933623 117.6095,64.596355 C 118.49882,64.255091 118.95993,63.33797 118.64926,62.528359 C 118.05472,60.979028 122.32204,57 124.57815,57 C 125.2978,57 126.54568,56.059025 127.35122,54.908944 C 129.13306,52.365019 132.38837,52.744759 132.79115,55.543525 C 133.28217,58.955371 118.14396,68.659978 116.49435,65.990863 z M 147.50555,42.008986 C 144.64884,37.386725 157.76391,32.112785 164.49194,35.17828 C 169.07822,37.267932 167.10814,39.221704 158.5,41.120611 C 148.92833,43.232068 148.29318,43.283389 147.50555,42.008986 z"
       id="path2453" />
  </g>
</svg>
