/* XPM */
static char * zephyr48_xpm[] = {
"48 48 111 2",
"  	c None",
". 	c #B19B91",
"+ 	c #AE978D",
"@ 	c #A89186",
"# 	c #AA9388",
"$ 	c #A68E83",
"% 	c #8E7369",
"& 	c #8D7268",
"* 	c #8F746A",
"= 	c #947A6F",
"- 	c #A1887C",
"; 	c #A78F84",
"> 	c #91766B",
", 	c #8E7368",
"' 	c #9F867B",
") 	c #90766B",
"! 	c #A58D82",
"~ 	c #A0877D",
"{ 	c #987E73",
"] 	c #987F74",
"^ 	c #B19A90",
"/ 	c #AC958A",
"( 	c #A58C80",
"_ 	c #9B8175",
": 	c #9E857A",
"< 	c #AB9489",
"[ 	c #987D72",
"} 	c #AE988D",
"| 	c #9C8276",
"1 	c #A48B80",
"2 	c #9A8075",
"3 	c #9F8679",
"4 	c #B09A8F",
"5 	c #9A7F73",
"6 	c #9D8377",
"7 	c #A79085",
"8 	c #AA9288",
"9 	c #B09A90",
"0 	c #A38A80",
"a 	c #A38B80",
"b 	c #A58D81",
"c 	c #A08679",
"d 	c #997F73",
"e 	c #A1877A",
"f 	c #AC9489",
"g 	c #9D8479",
"h 	c #A78E82",
"i 	c #967C71",
"j 	c #A68D82",
"k 	c #8F7469",
"l 	c #A48C81",
"m 	c #AB958A",
"n 	c #A38A7E",
"o 	c #977C71",
"p 	c #9F8579",
"q 	c #A58C81",
"r 	c #A1887D",
"s 	c #A0867A",
"t 	c #AC958B",
"u 	c #9B8277",
"v 	c #90756A",
"w 	c #977D72",
"x 	c #A3897D",
"y 	c #AD968C",
"z 	c #AF998E",
"A 	c #A89085",
"B 	c #9E8579",
"C 	c #92776C",
"D 	c #B0998F",
"E 	c #AE988E",
"F 	c #A99186",
"G 	c #A48C7F",
"H 	c #A88F84",
"I 	c #B19B90",
"J 	c #AD968B",
"K 	c #AF998F",
"L 	c #AB9388",
"M 	c #A2887B",
"N 	c #9C8175",
"O 	c #9E8477",
"P 	c #A99185",
"Q 	c #987E72",
"R 	c #A48B7F",
"S 	c #9F8578",
"T 	c #93786D",
"U 	c #9C8176",
"V 	c #AF988E",
"W 	c #A2897C",
"X 	c #957A6F",
"Y 	c #94796E",
"Z 	c #AE978C",
"` 	c #957B70",
" .	c #AA9387",
"..	c #A58C82",
"+.	c #91766C",
"@.	c #A48B7E",
"#.	c #93796E",
"$.	c #A78F83",
"%.	c #997E72",
"&.	c #A89084",
"*.	c #9A7F74",
"=.	c #A38A7D",
"-.	c #A1897D",
";.	c #A58E83",
">.	c #9F8478",
",.	c #90756B",
"'.	c #AC948A",
").	c #A1877B",
"!.	c #A68D81",
"~.	c #A68E82",
"{.	c #A1887B",
"          . . + @ #                                                                             ",
"        . . $ % & * = -                                                                         ",
"        . ; > & & & & , '                                                                       ",
"      . + ) & & & & & & % !                                                                     ",
"      . ~ & & & & & & & & {                                                                     ",
"    . . ! > & & & & & & & ]                                                                     ",
"^ ! / . ( _ & & & & & & & :                                                                     ",
"< & [ } | % & & & & & & & 1                                                                     ",
"  2 3 4 2 & > 5 6 * & & & 7                                                                     ",
"    . . 8 $ } . 9 0 % % & a                                                                     ",
"              . . . b c % d                                                                     ",
"              . . . 4 e % * f                                                                   ",
"              . . . . ( % & g . .                                                               ",
"              . . . . h % & i . . .                                                             ",
"              . . . . j k & l . . . . .                                     m 0                 ",
"              . . . . n o p ^ . . . . . .                                 q ) r                 ",
"                . . . s c t . . . . . . . .       . . . . 1 u + .       # v w                   ",
"                . . . x ( . . y 9 / z . . . . . . . . . . } A 4 . .   . B C <                   ",
"                . . . ( j . . . . 4 D . . . . . . . . . . . . . . . . . . E                     ",
"                . . . F G . . . H I . . . . . . . 9 + I . 9 J K . . . . . .                     ",
"                . . . J e D K . L 9 K . . . . . < M c x ( N O F . . . . . . .                   ",
"                . . . 9 c J . . . P Q 1 I D # R S _ [ T % & U V . . . . . . . .                 ",
"                . . . . W F . . z c T | e c O X & & & & & Y A . . . . . . . . .                 ",
"                . . . . b Z . . F c c c | T & & & & & & T b . . . . . . . . / #                 ",
"                K # . . z . . . A c c ` & & & & & & % o F . . . . . . . . . F - .               ",
"                 .T < . . . . 9 x 6 > & & & & & & X ..9 . . . . . . . . . . J o V               ",
"                J +.@.V < K . q Y & & & & & & #.l D .   . 9 F $.4 . . . . . . S D               ",
"                  n c S c / . i & & %.v & +.r D             . < x y . . . . . J .               ",
"                  } e [ p &.. P 2 *.=.-.;.                    . K R y . . . . . . .             ",
"                  . L c S s . . . .                           . . z x y . . . . . .             ",
"                  . . n >.,.9 . .                               . . Z M J . . 9 9 .             ",
"                  . . F c o K .                                 . . . '.).9 . y n V .           ",
"                    . &.c n . .                                   . . . f 7 . . !.x z           ",
"                    . P F ^ .                                     . . . . . . . . . . .         ",
"                    . . . . .                                       . . . . . . . K + .         ",
"                    . . . . .                                         . . . 4 .   . . 9 9       ",
"                    . . . . .                                           . . z &.    . . . .     ",
"                    . . . . .                                             . . L z     . . . .   ",
"                    . . . . .                                               . . .       . . .   ",
"                    . . . . .                                               . . .       . . .   ",
"                    . . . . .                                                 . .         . .   ",
"                    . . . . .                                                 . .           . . ",
"                    . .   . .                                                 . .           . . ",
"                  . . . . . .                                                 .             . . ",
"                . . . . . . .                                               . .             . . ",
"              . ~.M {.P . .                                               . . .           9 V . ",
"                Z < F '.. .                                               . . .         9 =./ . ",
"                                                                                        . + V   "};
