<?xml version="1.0" encoding="UTF-8" standalone="no"?>
<!-- Created with Inkscape (http://www.inkscape.org/) -->

<svg
   xmlns:dc="http://purl.org/dc/elements/1.1/"
   xmlns:cc="http://creativecommons.org/ns#"
   xmlns:rdf="http://www.w3.org/1999/02/22-rdf-syntax-ns#"
   xmlns:svg="http://www.w3.org/2000/svg"
   xmlns="http://www.w3.org/2000/svg"
   xmlns:sodipodi="http://sodipodi.sourceforge.net/DTD/sodipodi-0.dtd"
   xmlns:inkscape="http://www.inkscape.org/namespaces/inkscape"
   id="svg2440"
   sodipodi:version="0.32"
   inkscape:version="0.48.0 r9654"
   width="141.40196"
   height="141.40121"
   version="1.0"
   sodipodi:docname="logo.svg"
   inkscape:output_extension="org.inkscape.output.svg.inkscape"
   inkscape:export-filename="/Users/thomas/Research/Public/Zephyr/images/logo.png"
   inkscape:export-xdpi="318.23999"
   inkscape:export-ydpi="318.23999">
  <metadata
     id="metadata2445">
    <rdf:RDF>
      <cc:Work
         rdf:about="">
        <dc:format>image/svg+xml</dc:format>
        <dc:type
           rdf:resource="http://purl.org/dc/dcmitype/StillImage" />
        <dc:title></dc:title>
      </cc:Work>
    </rdf:RDF>
  </metadata>
  <defs
     id="defs2443">
    <inkscape:perspective
       sodipodi:type="inkscape:persp3d"
       inkscape:vp_x="0 : 526.18109 : 1"
       inkscape:vp_y="0 : 1000 : 0"
       inkscape:vp_z="744.09448 : 526.18109 : 1"
       inkscape:persp3d-origin="372.04724 : 350.78739 : 1"
       id="perspective2447" />
    <inkscape:perspective
       id="perspective2515"
       inkscape:persp3d-origin="372.04724 : 350.78739 : 1"
       inkscape:vp_z="744.09448 : 526.18109 : 1"
       inkscape:vp_y="0 : 1000 : 0"
       inkscape:vp_x="0 : 526.18109 : 1"
       sodipodi:type="inkscape:persp3d" />
    <inkscape:perspective
       id="perspective2597"
       inkscape:persp3d-origin="372.04724 : 350.78739 : 1"
       inkscape:vp_z="744.09448 : 526.18109 : 1"
       inkscape:vp_y="0 : 1000 : 0"
       inkscape:vp_x="0 : 526.18109 : 1"
       sodipodi:type="inkscape:persp3d" />
  </defs>
  <sodipodi:namedview
     inkscape:window-height="1002"
     inkscape:window-width="1680"
     inkscape:pageshadow="2"
     inkscape:pageopacity="0.0"
     guidetolerance="10.0"
     gridtolerance="10.0"
     objecttolerance="10.0"
     borderopacity="1.0"
     bordercolor="#666666"
     pagecolor="#ffffff"
     id="base"
     showgrid="false"
     inkscape:zoom="1.006981"
     inkscape:cx="378.85521"
     inkscape:cy="61.443545"
     inkscape:window-x="0"
     inkscape:window-y="22"
     inkscape:current-layer="svg2440"
     fit-margin-top="0"
     fit-margin-left="0"
     fit-margin-right="0"
     fit-margin-bottom="0"
     inkscape:window-maximized="0" />
  <g
     id="g2633"
     transform="matrix(1,0,0,1.0689013,-23.652959,-31.678399)"
     inkscape:export-filename="/Users/thomas/Codes/Research/Critterbot/zephyr/zephyr.application/images/zephyr64.png"
     inkscape:export-xdpi="40.73"
     inkscape:export-ydpi="40.73">
    <path
       style="fill:#b19b91"
       d="m 154.48695,161.33772 c -0.6875,-0.27741 -1.25,-1.11124 -1.25,-1.85296 0,-0.74171 1.35,-2.30986 3,-3.48476 2.52109,-1.79517 3,-2.80916 3,-6.35182 0,-3.06077 -0.89032,-5.58937 -3.25,-9.23029 -1.7875,-2.75807 -6.53076,-8.10213 -10.54059,-11.8757 -4.87443,-4.58723 -7.62295,-6.52865 -8.29348,-5.85812 -0.67053,0.67053 0.5101,2.68571 3.56247,6.08068 4.47654,4.97899 4.54682,5.162 3.6123,9.40652 -0.52419,2.3808 -1.27002,7.62007 -1.65741,11.64283 -0.41444,4.30368 -1.31714,7.92689 -2.1932,8.80295 -0.91598,0.91598 -2.88389,1.37228 -5.11447,1.1859 -2.74625,-0.22947 -3.69005,-0.78803 -3.89125,-2.30295 -0.17881,-1.34624 0.85181,-2.71768 3.1529,-4.19554 2.59325,-1.66551 3.57554,-3.12483 4.06887,-6.04487 0.36061,-2.13444 0.15292,-5.15763 -0.46619,-6.78602 -0.61409,-1.61519 -5.08326,-6.87334 -9.93148,-11.68479 -7.24567,-7.19071 -9.11054,-9.68634 -10.47531,-14.01843 -0.91319,-2.89869 -2.13519,-6.21963 -2.71555,-7.37987 -0.58036,-1.16023 -2.60326,-2.84773 -4.49533,-3.75 C 108.71716,102.73822 105.80199,102 104.13109,102 c -1.6709,0 -4.918135,1.05158 -7.216073,2.33684 -2.297939,1.28526 -7.55307,3.29273 -11.67807,4.46105 -4.125,1.16832 -8.625,2.34723 -10,2.6198 -1.564287,0.3101 -3.225391,1.84309 -4.43807,4.09577 -1.512305,2.80927 -1.890498,5.29025 -1.721526,11.29336 0.1191,4.23125 -0.170732,9.73733 -0.64407,12.23574 -0.552531,2.91641 -0.488277,5.13284 0.179487,6.19146 0.772074,1.224 0.621775,2.11496 -0.583246,3.45744 -0.892841,0.9947 -1.933497,3.48001 -2.312568,5.52291 -0.379072,2.04291 -1.317831,4.23607 -2.086132,4.87371 -0.888858,0.73768 -3.305768,0.94606 -6.645393,0.57293 -2.886665,-0.32252 -7.048482,-0.94832 -9.248482,-1.39067 -2.495491,-0.50176 -4,-1.35912 -4,-2.27943 0,-0.81135 1.61601,-2.23609 3.591132,-3.1661 1.975123,-0.93002 4.373051,-2.8843 5.328728,-4.34285 1.373623,-2.09641 1.629842,-4.04802 1.223184,-9.31693 C 52.672486,123.51989 51.049357,112.10891 49.233625,106.5 48.16534,103.2 46.781591,97.349382 46.158627,93.498625 44.530613,86.320409 47.164359,78.974332 45.786219,71.840922 45.49226,70.553415 45.135918,66.800001 44.994348,63.500001 l -0.257401,-6 -4,0.258884 c -2.2,0.142387 -6.286883,-0.211319 -9.081961,-0.786013 -4.422139,-0.909232 -5.304101,-1.51073 -6.79289,-4.632751 -1.609614,-3.375397 -1.610387,-3.698951 -0.01305,-5.463987 1.002629,-1.107893 3.040001,-1.876133 4.975502,-1.876133 2.350847,0 3.449481,-0.541471 3.885409,-1.914958 0.334281,-1.053226 0.343187,-2.969192 0.01979,-4.257702 -0.453609,-1.807322 0.236683,-3.140891 3.020378,-5.835042 3.366878,-3.258574 4.007835,-3.480579 9.577172,-3.317187 3.750808,0.110041 7.615989,0.972501 10.401516,2.320952 2.530359,1.224925 5.334451,3.604879 6.533865,5.545572 1.822204,2.948388 2.011394,4.310609 1.425068,10.260886 -0.513589,5.212125 -0.3131,7.563081 0.834181,9.781677 0.830643,1.606288 2.343831,3.653494 3.36264,4.549348 1.018808,0.895853 5.002379,3.004769 8.852379,4.686479 17.501845,16.007589 13.516545,6.749509 31.678184,6.623134 7.47058,0.05014 8.94841,0.374541 12.54263,2.753225 l 4.07427,2.696384 5.85246,-5.437924 c 3.21885,-2.990858 6.68526,-5.711433 7.70312,-6.045721 1.01787,-0.334288 2.36127,-0.09719 2.98535,0.526889 1.21605,1.216045 0.85049,1.98666 -4.71335,9.936143 l -2.87733,4.111069 3.71098,4.528761 c 3.1565,3.852098 3.90808,5.758389 5.03017,12.758388 0.83877,5.232616 2.44709,10.374946 4.41635,14.120546 1.70344,3.24001 3.09717,6.47699 3.09717,7.1933 0,0.7163 0.7875,1.90755 1.75,2.64721 0.9625,0.73966 3.53297,3.24442 5.71216,5.56614 3.56049,3.79336 4.02945,4.90464 4.62593,10.96187 0.36508,3.70731 0.99355,9.47197 1.39662,12.81035 0.60536,5.01392 0.44056,6.36208 -0.94736,7.75 -0.92411,0.92412 -3.11056,1.64468 -4.85878,1.60126 -1.74821,-0.0434 -3.74107,-0.30592 -4.42857,-0.58333 z M 61.268484,147.19313 c 0.175753,-1.19442 -0.106647,-2.17167 -0.627555,-2.17167 -0.520909,0 -1.490947,0.65529 -2.155641,1.4562 -0.664694,0.8009 -1.115542,3.9282 -0.74279,4.53132 0.372752,0.60313 1.198992,0.92509 1.83609,0.71548 0.637097,-0.20961 1.514143,-3.33691 1.689896,-4.53133 z m -0.03154,-8.25215 c 0,-1.7847 -0.416577,-3.79083 -1,-3.43025 -0.55,0.33992 -1,2.70575 -1,4.04829 0,1.34254 0.45,2.44098 1,2.44098 0.55,0 1,-1.37656 1,-3.05902 z"
       id="path2639"
       sodipodi:nodetypes="cssssssssssssssssssssssssssssssssssssscccccssssssssssssscccccsscccsssssssssccssssccsssc"
       inkscape:connector-curvature="0" />
    <path
       style="fill:#a08679"
       d="m 155.79745,159.0979 c -0.13824,-3.06155 8.86098,-5.33616 3.82058,-1.73946 2.95174,3.76929 -2.08557,2.96855 -3.82058,1.73946 z M 50.736946,157.0681 c -5.610238,0.87065 -3.617584,-3.78087 0.749424,-3.18059 3.703141,-1.69272 12.09277,3.4974 4.293933,4.01337 -1.705512,-0.0779 -3.409342,-0.32938 -5.043357,-0.83278 z m 88.250004,-25.52754 c -3.21508,-2.41866 -1.83763,-5.38432 1.19137,-1.52473 2.82341,1.65868 2.80921,6.98808 -0.31467,2.5377 l -0.8767,-1.01297 0,0 z M 152.73695,127 c 0.65127,-2.92626 2.04309,3.10309 0,0 z m -6.04112,-2.06653 c 0.11503,-5.31917 3.94128,3.82575 0,0 l 0,0 z m -89.458884,-4.05916 c 3.668339,-7.85568 -6.639593,-12.16673 -8.009262,-19.05488 -2.79839,-6.71821 6.214058,-5.707381 5.447611,0.15923 2.393698,5.95082 9.631109,-3.630027 7.983575,2.89781 1.828405,6.29705 6.718396,15.70096 -3.348614,17.61624 -2.343216,1.15165 -2.567391,0.91589 -2.07331,-1.6184 z m 72.253444,-3.66492 c -4.33513,-7.14517 -11.57736,-11.77608 -18.61792,-15.92092 7.55618,-0.48886 12.90022,6.45572 17.95384,11.10511 4.98606,2.1216 7.76033,12.78372 1.19218,5.34206 l -0.5281,-0.52625 0,0 z m 15.24656,3.067 c -5.18897,1.57961 -5.58204,-10.98549 -1.1685,-4.29533 3.08093,0.44322 8.20534,6.44606 1.1685,4.29533 z m -73.023808,-11.3149 c -8.7764,0.3483 -1.48406,-9.198375 0.503719,-10.52443 -1.772111,-4.446615 4.807737,-16.049713 8.630222,-9.999439 3.904848,5.277414 7.495291,-0.518213 11.827022,-0.05652 4.203809,-3.344784 9.378035,-6.596381 13.653635,-2.220355 3.32983,-1.296116 12.54133,-5.492909 9.60073,1.93735 -3.7039,7.306225 -10.68401,11.371387 -18.12904,13.736074 -7.81502,3.83162 -16.196594,8.20985 -25.134132,7.5386 -0.317385,-0.13709 -0.63477,-0.27419 -0.952156,-0.41128 z M 139.92403,106 c -0.3746,-3.48726 -6.55312,-13.44084 -0.28164,-12.436306 1.97369,3.513227 4.15086,9.403166 0.28164,12.436306 z M 60.232151,95.991035 C 60.650825,88.175993 55.137806,80.968982 56.466168,73.475945 58.565588,66.670139 57.1178,58.790488 50.792321,55.07002 46.388569,50.211733 35.313796,61.736356 35.688126,50.746183 c 0.119325,-7.033949 2.50038,-15.880951 9.640296,-18.799845 7.546525,-2.469803 18.415817,2.859084 18.448484,11.435035 -0.204196,5.308398 -2.497647,11.326536 1.166019,16.015366 4.915374,6.635294 0.450009,13.930774 -4.178273,18.732 -1.4225,5.971719 6.142111,14.984774 0.10684,18.881653 l -0.639341,-1.019357 0,0 z M 63.736946,91 c 0.651284,-2.92626 2.043098,3.103096 0,0 z m 0.5,-5 c 2.222454,-4.050513 1.258226,3.18794 0,0 z m 7.183579,-1.672882 c 0.761884,-7.512839 5.729095,4.315808 0.05382,1.887724 l -0.09148,-0.941417 0.03766,-0.946307 0,0 z m 3.816421,-5.910446 c 2.376398,-7.00081 3.256213,8.3922 0,0 z m 55.666684,0.916664 c -1.29291,-4.801639 7.87515,-11.742431 9.93548,-8.269938 -2.05137,3.623936 -4.64688,9.920453 -9.93548,8.269938 z M 69.141228,77.384659 c 0.125797,-4.174972 4.739208,4.659991 0.07894,0.08302 l -0.07894,-0.08302 z M 109.83456,76.69503 c -1.98691,-6.412217 12.48278,1.337513 3.19193,1.093405 -1.13142,-0.0964 -2.24402,-0.464151 -3.19193,-1.093405 z M 26.650049,52.507721 c -5.456365,-7.527788 11.385801,-5.155411 5.36984,1.293001 -1.493683,2.015798 -4.669553,0.809381 -5.36984,-1.293001 z"
       id="path2637"
       inkscape:connector-curvature="0" />
    <path
       style="fill:#8d7268"
       d="m 132.73695,119 c -0.33992,-0.55 -0.14148,-1 0.44098,-1 0.58246,0 1.05902,0.45 1.05902,1 0,0.55 -0.19844,1 -0.44098,1 -0.24254,0 -0.7191,-0.45 -1.05902,-1 z m -70.462842,-3.40226 c -0.570439,-1.50037 -1.037161,-3.14864 -1.037161,-3.66284 0,-0.51419 0.626216,-0.9349 1.391592,-0.9349 0.765376,0 1.690286,1.19009 2.055355,2.64464 0.36507,1.45456 0.205576,3.10284 -0.354431,3.66284 -0.690926,0.69093 -1.351559,0.14138 -2.055355,-1.70974 z M 56.236947,107.5 c 0,-1.02996 0.655397,-1.52043 1.75,-1.30963 0.9625,0.18536 1.66127,0.78086 1.552821,1.32333 -0.108448,0.54246 -0.895948,1.1318 -1.75,1.30962 -0.905984,0.18865 -1.552821,-0.36259 -1.552821,-1.32332 z m 14.74524,-0.16293 C 68.67652,106.12282 68.396963,105.56952 69.267371,103.94315 69.865362,102.8258 71.354807,102 72.772131,102 c 1.355649,0 2.464816,-0.45 2.464816,-1 0,-0.55 0.700367,-1 1.556371,-1 0.856004,0 2.824053,-1.387933 4.373442,-3.084298 1.740838,-1.905973 3.570812,-2.956605 4.790006,-2.750058 1.085113,0.183832 2.76934,-0.326719 3.742725,-1.134558 0.973386,-0.807838 3.405017,-2.038536 5.403624,-2.734885 1.998608,-0.696348 5.221205,-1.272863 7.161325,-1.281144 1.94013,-0.0083 4.5485,-0.730192 5.79638,-1.604247 1.24789,-0.874055 2.92302,-1.338178 3.72251,-1.031384 0.79949,0.306793 1.45362,1.261052 1.45362,2.120575 0,0.859523 -0.675,1.821791 -1.5,2.138374 -0.825,0.316582 -1.5,1.172134 -1.5,1.901227 0,0.729093 -0.90048,1.611424 -2.00106,1.960736 -1.10059,0.349312 -2.43342,1.442971 -2.96185,2.430353 -0.52843,0.987383 -2.57662,2.057457 -4.55153,2.377941 -1.974922,0.320485 -4.610241,1.563908 -5.856271,2.763178 -1.24603,1.19926 -4.484861,3.02334 -7.197401,4.05352 -2.71254,1.03017 -5.494391,1.87341 -6.181891,1.87386 -0.6875,4.4e-4 -1.25,-0.89919 -1.25,-1.99919 0,-1.1 -0.439626,-2 -0.976947,-2 -0.537321,0 -1.714075,1.125 -2.61501,2.5 -0.900935,1.375 -1.923808,2.45226 -2.273053,2.39392 -0.349244,-0.0583 -1.874632,-0.75892 -3.38975,-1.55685 z m -20.138251,-3.91886 c -0.898532,-2.34153 -0.736117,-5.418209 0.286022,-5.418209 0.491156,0 1.166156,0.711804 1.5,1.581787 C 53.52849,101.92332 53.366075,105 52.343936,105 c -0.491156,0 -1.166156,-0.7118 -1.5,-1.58179 z m 88.801374,-1.79641 c -0.31763,-0.82774 -0.42588,-2.292297 -0.24056,-3.254581 0.26631,-1.382867 0.59056,-1.192983 1.54686,0.905875 0.75864,1.665046 0.84837,2.878936 0.24057,3.254576 -0.53315,0.3295 -1.22924,-0.0781 -1.54687,-0.90587 z M 77.927423,93.357144 c -0.379762,-0.379762 -0.690476,-1.740476 -0.690476,-3.02381 0,-1.327759 0.600333,-2.333333 1.393011,-2.333333 0.766156,0 1.682691,0.754894 2.036744,1.677541 0.354054,0.922648 0.03791,2.283363 -0.702535,3.02381 -0.740447,0.740447 -1.656982,1.035554 -2.036744,0.655792 z m 36.309527,-8.357143 c 0,-0.55 0.47656,-1 1.05902,-1 0.58246,0 0.7809,0.45 0.44098,1 -0.33992,0.55 -0.81648,1 -1.05902,1 -0.24254,0 -0.44098,-0.45 -0.44098,-1 z m 17.11296,-6.363895 c -0.89061,-1.07312 -0.1753,-2.245689 3.35521,-5.5 4.31614,-3.978484 6.53183,-5.091073 6.53183,-3.279907 0,1.252077 -6.94536,10.143802 -7.92336,10.143802 -0.45746,0 -1.34112,-0.613753 -1.96368,-1.363895 z M 57.80124,75.706873 c 0.375531,-0.986221 0.934692,-1.541221 1.242579,-1.233333 0.307887,0.307887 6.34e-4,1.114794 -0.682784,1.793128 -0.987616,0.980267 -1.10248,0.865403 -0.559795,-0.559795 z m 52.43571,0.293128 c 0,-0.55 1.35,-1 3,-1 1.65,0 3,0.45 3,1 0,0.55 -1.35,1 -3,1 -1.65,0 -3,-0.45 -3,-1 z m -51.088864,-6.75 c -0.04887,-2.0625 -0.01516,-6 0.07492,-8.75 0.132343,-4.040382 -0.08091,-4.760096 -1.11114,-3.75 -0.701203,0.6875 -2.040466,1.25 -2.976139,1.25 -0.935673,0 -2.625111,-1.565872 -3.754306,-3.479714 -1.981998,-3.359237 -2.149877,-3.431686 -4.848776,-2.092503 -6.208961,3.080862 -8.318161,3.883083 -8.839277,3.361967 -0.300629,-0.300628 -0.638807,-1.83835 -0.751507,-3.417158 -0.163579,-2.291563 0.24892,-2.93522 2.04509,-3.191128 1.2375,-0.176311 2.25,-0.964268 2.25,-1.751015 0,-0.786747 -0.417857,-1.430449 -0.928571,-1.430449 -0.510715,0 -1.614242,-0.685671 -2.452284,-1.523713 -1.36495,-1.36495 -1.310004,-1.885922 0.527347,-5 1.197854,-2.030211 2.841936,-3.476287 3.952284,-3.476287 1.234557,0 1.901224,-0.701303 1.901224,-2 0,-1.706304 0.666667,-2 4.539838,-2 2.501087,0 6.22754,0.861001 8.297968,1.917255 2.112622,1.077779 4.587075,3.456511 5.651333,5.432719 1.580556,2.934915 1.69649,3.947198 0.702031,6.129798 -0.655143,1.437884 -1.19117,4.823176 -1.19117,7.522872 0,3.586719 0.673224,5.90059 2.5,8.592494 1.375,2.026176 2.5,4.316614 2.5,5.089863 0,0.77325 -1.104545,2.510454 -2.454545,3.860454 -1.35,1.35 -3.15,2.454545 -4,2.454545 -1.103395,0 -1.570873,-1.072646 -1.634316,-3.75 z m -31.698639,-16.4375 c -0.666875,-0.666875 -1.2125,-2.0225 -1.2125,-3.0125 0,-1.265756 0.761719,-1.8 2.566422,-1.8 2.194038,0 2.52051,0.387832 2.25,2.672881 -0.174032,1.470085 -0.783297,2.82571 -1.353922,3.0125 -0.570625,0.186791 -1.583125,-0.206006 -2.25,-0.872881 z"
       id="path2635"
       inkscape:connector-curvature="0" />
  </g>
</svg>
