<?xml version="1.0" encoding="UTF-8" standalone="no"?>
<!-- Created with Inkscape (http://www.inkscape.org/) -->
<svg
   xmlns:dc="http://purl.org/dc/elements/1.1/"
   xmlns:cc="http://creativecommons.org/ns#"
   xmlns:rdf="http://www.w3.org/1999/02/22-rdf-syntax-ns#"
   xmlns:svg="http://www.w3.org/2000/svg"
   xmlns="http://www.w3.org/2000/svg"
   xmlns:sodipodi="http://sodipodi.sourceforge.net/DTD/sodipodi-0.dtd"
   xmlns:inkscape="http://www.inkscape.org/namespaces/inkscape"
   id="svg2440"
   sodipodi:version="0.32"
   inkscape:version="0.46"
   width="190"
   height="190"
   version="1.0"
   sodipodi:docname="zephyr.svg"
   inkscape:output_extension="org.inkscape.output.svg.inkscape">
  <metadata
     id="metadata2445">
    <rdf:RDF>
      <cc:Work
         rdf:about="">
        <dc:format>image/svg+xml</dc:format>
        <dc:type
           rdf:resource="http://purl.org/dc/dcmitype/StillImage" />
      </cc:Work>
    </rdf:RDF>
  </metadata>
  <defs
     id="defs2443">
    <inkscape:perspective
       sodipodi:type="inkscape:persp3d"
       inkscape:vp_x="0 : 526.18109 : 1"
       inkscape:vp_y="0 : 1000 : 0"
       inkscape:vp_z="744.09448 : 526.18109 : 1"
       inkscape:persp3d-origin="372.04724 : 350.78739 : 1"
       id="perspective2447" />
    <inkscape:perspective
       id="perspective2515"
       inkscape:persp3d-origin="372.04724 : 350.78739 : 1"
       inkscape:vp_z="744.09448 : 526.18109 : 1"
       inkscape:vp_y="0 : 1000 : 0"
       inkscape:vp_x="0 : 526.18109 : 1"
       sodipodi:type="inkscape:persp3d" />
    <inkscape:perspective
       id="perspective2597"
       inkscape:persp3d-origin="372.04724 : 350.78739 : 1"
       inkscape:vp_z="744.09448 : 526.18109 : 1"
       inkscape:vp_y="0 : 1000 : 0"
       inkscape:vp_x="0 : 526.18109 : 1"
       sodipodi:type="inkscape:persp3d" />
  </defs>
  <sodipodi:namedview
     inkscape:window-height="931"
     inkscape:window-width="1354"
     inkscape:pageshadow="2"
     inkscape:pageopacity="0.0"
     guidetolerance="10.0"
     gridtolerance="10.0"
     objecttolerance="10.0"
     borderopacity="1.0"
     bordercolor="#666666"
     pagecolor="#ffffff"
     id="base"
     showgrid="false"
     inkscape:zoom="4.0593711"
     inkscape:cx="85.578842"
     inkscape:cy="69.997465"
     inkscape:window-x="20"
     inkscape:window-y="42"
     inkscape:current-layer="svg2440" />
  <g
     id="g2633"
     transform="matrix(1,0,0,1.0689013,-8.7751004,15.889733)"
     inkscape:export-filename="/Users/thomas/Codes/Research/Critterbot/zephyr/zephyr.product/images/zephyr64.png"
     inkscape:export-xdpi="40.73"
     inkscape:export-ydpi="40.73">
    <path
       style="fill:#b19b91"
       d="M 154.48695,161.33772 C 153.79945,161.06031 153.23695,160.22648 153.23695,159.48476 C 153.23695,158.74305 154.58695,157.1749 156.23695,156 C 158.75804,154.20483 159.23695,153.19084 159.23695,149.64818 C 159.23695,146.58741 158.34663,144.05881 155.98695,140.41789 C 154.19945,137.65982 149.45619,132.31576 145.44636,128.54219 C 140.57193,123.95496 137.82341,122.01354 137.15288,122.68407 C 136.48235,123.3546 137.66298,125.36978 140.71535,128.76475 C 145.19189,133.74374 145.26217,133.92675 144.32765,138.17127 C 143.80346,140.55207 143.05763,145.79134 142.67024,149.8141 C 142.2558,154.11778 141.3531,157.74099 140.47704,158.61705 C 139.56106,159.53303 137.59315,159.98933 135.36257,159.80295 C 132.61632,159.57348 131.67252,159.01492 131.47132,157.5 C 131.29251,156.15376 132.32313,154.78232 134.62422,153.30446 C 137.21747,151.63895 138.19976,150.17963 138.69309,147.25959 C 139.0537,145.12515 138.84601,142.10196 138.2269,140.47357 C 137.61281,138.85838 133.14364,133.60023 128.29542,128.78878 C 121.04975,121.59807 119.18488,119.10244 117.82011,114.77035 C 116.90692,111.87166 115.68492,108.55072 115.10456,107.39048 C 114.5242,106.23025 112.5013,104.54275 110.60923,103.64048 C 108.71716,102.73822 105.80199,102 104.13109,102 C 102.46019,102 99.212955,103.05158 96.915017,104.33684 C 94.617078,105.6221 89.361947,107.62957 85.236947,108.79789 C 81.111947,109.96621 76.611947,111.14512 75.236947,111.41769 C 73.67266,111.72779 72.011556,113.26078 70.798877,115.51346 C 69.286572,118.32273 68.908379,120.80371 69.077351,126.80682 C 69.196451,131.03807 68.906619,136.54415 68.433281,139.04256 C 67.88075,141.95897 67.945004,144.1754 68.612768,145.23402 C 69.384842,146.45802 69.234543,147.34898 68.029522,148.69146 C 67.136681,149.68616 66.096025,152.17147 65.716954,154.21437 C 65.337882,156.25728 64.399123,158.45044 63.630822,159.08808 C 62.741964,159.82576 60.325054,160.03414 56.985429,159.66101 C 54.098764,159.33849 49.936947,158.71269 47.736947,158.27034 C 45.241456,157.76858 43.736947,156.91122 43.736947,155.99091 C 43.736947,155.17956 45.352957,153.75482 47.328079,152.82481 C 49.303202,151.89479 51.70113,149.94051 52.656807,148.48196 C 54.03043,146.38555 54.286649,144.43394 53.879991,139.16503 C 52.672486,123.51989 51.049357,112.10891 49.233625,106.5 C 48.16534,103.2 46.781591,97.349382 46.158627,93.498625 C 44.530613,86.320409 47.164359,78.974332 45.786219,71.840922 C 45.49226,70.553415 45.135918,66.800001 44.994348,63.500001 L 44.736947,57.500001 L 40.736947,57.758885 C 38.536947,57.901272 34.450064,57.547566 31.654986,56.972872 C 27.232847,56.06364 26.350885,55.462142 24.862096,52.340121 C 23.252482,48.964724 23.251709,48.64117 24.849045,46.876134 C 25.851674,45.768241 27.889046,45.000001 29.824547,45.000001 C 32.175394,45.000001 33.274028,44.45853 33.709956,43.085043 C 34.044237,42.031817 34.053143,40.115851 33.729748,38.827341 C 33.276139,37.020019 33.966431,35.68645 36.750126,32.992299 C 40.117004,29.733725 40.757961,29.51172 46.327298,29.675112 C 50.078106,29.785153 53.943287,30.647613 56.728814,31.996064 C 59.259173,33.220989 62.063265,35.600943 63.262679,37.541636 C 65.084883,40.490024 65.274073,41.852245 64.687747,47.802522 C 64.174158,53.014647 64.374647,55.365603 65.521928,57.584199 C 66.352571,59.190487 67.865759,61.237693 68.884568,62.133547 C 69.903376,63.0294 73.886947,65.138316 77.736947,66.820026 C 95.238792,82.827615 91.253492,73.569535 109.41513,73.44316 C 116.88571,73.493304 118.36354,73.817701 121.95776,76.196385 L 126.03203,78.892769 L 131.88449,73.454845 C 135.10334,70.463987 138.56975,67.743412 139.58761,67.409124 C 140.60548,67.074836 141.94888,67.311936 142.57296,67.936013 C 143.78901,69.152058 143.42345,69.922673 137.85961,77.872156 L 134.98228,81.983225 L 138.69326,86.511986 C 141.84976,90.364084 142.60134,92.270375 143.72343,99.270374 C 144.5622,104.50299 146.17052,109.64532 148.13978,113.39092 C 149.84322,116.63093 151.23695,119.86791 151.23695,120.58422 C 151.23695,121.30052 152.02445,122.49177 152.98695,123.23143 C 153.94945,123.97109 156.51992,126.47585 158.69911,128.79757 C 162.2596,132.59093 162.72856,133.70221 163.32504,139.75944 C 163.69012,143.46675 164.31859,149.23141 164.72166,152.56979 C 165.32702,157.58371 165.16222,158.93187 163.7743,160.31979 C 162.85019,161.24391 160.66374,161.96447 158.91552,161.92105 C 157.16731,161.87763 155.17445,161.61513 154.48695,161.33772 z M 61.268484,147.19313 C 61.444237,145.99871 61.161837,145.02146 60.640929,145.02146 C 60.12002,145.02146 59.149982,145.67675 58.485288,146.47766 C 57.820594,147.27856 57.369746,150.40586 57.742498,151.00898 C 58.11525,151.61211 58.94149,151.93407 59.578588,151.72446 C 60.215685,151.51485 61.092731,148.38755 61.268484,147.19313 z M 61.236947,138.94098 C 61.236947,137.15628 60.82037,135.15015 60.236947,135.51073 C 59.686947,135.85065 59.236947,138.21648 59.236947,139.55902 C 59.236947,140.90156 59.686947,142 60.236947,142 C 60.786947,142 61.236947,140.62344 61.236947,138.94098 z"
       id="path2639"
       sodipodi:nodetypes="cssssssssssssssssssssssssssssssssssssscccccssssssssssssscccccsscccsssssssssccssssccsssc" />
    <path
       style="fill:#a08679"
       d="M 155.79745,159.0979 C 155.65921,156.03635 164.65843,153.76174 159.61803,157.35844 C 162.56977,161.12773 157.53246,160.32699 155.79745,159.0979 z M 50.736946,157.0681 C 45.126708,157.93875 47.119362,153.28723 51.48637,153.88751 C 55.189511,152.19479 63.57914,157.38491 55.780303,157.90088 C 54.074791,157.82303 52.370961,157.5715 50.736946,157.0681 z M 138.98695,131.54056 C 135.77187,129.1219 137.14932,126.15624 140.17832,130.01583 C 143.00173,131.67451 142.98753,137.00391 139.86365,132.55353 L 138.98695,131.54056 L 138.98695,131.54056 z M 152.73695,127 C 153.38822,124.07374 154.78004,130.10309 152.73695,127 z M 146.69583,124.93347 C 146.81086,119.6143 150.63711,128.75922 146.69583,124.93347 L 146.69583,124.93347 z M 57.236946,120.87431 C 60.905285,113.01863 50.597353,108.70758 49.227684,101.81943 C 46.429294,95.10122 55.441742,96.112049 54.675295,101.97866 C 57.068993,107.92948 64.306404,98.348633 62.65887,104.87647 C 64.487275,111.17352 69.377266,120.57743 59.310256,122.49271 C 56.96704,123.64436 56.742865,123.4086 57.236946,120.87431 z M 129.49039,117.20939 C 125.15526,110.06422 117.91303,105.43331 110.87247,101.28847 C 118.42865,100.79961 123.77269,107.74419 128.82631,112.39358 C 133.81237,114.51518 136.58664,125.1773 130.01849,117.73564 L 129.49039,117.20939 L 129.49039,117.20939 z M 144.73695,120.27639 C 139.54798,121.856 139.15491,109.2909 143.56845,115.98106 C 146.64938,116.42428 151.77379,122.42712 144.73695,120.27639 z M 71.713142,108.96149 C 62.936742,109.30979 70.229082,99.763115 72.216861,98.43706 C 70.44475,93.990445 77.024598,82.387347 80.847083,88.437621 C 84.751931,93.715035 88.342374,87.919408 92.674105,88.381098 C 96.877914,85.036314 102.05214,81.784717 106.32774,86.160743 C 109.65757,84.864627 118.86907,80.667834 115.92847,88.098093 C 112.22457,95.404318 105.24446,99.46948 97.79943,101.83417 C 89.98441,105.66579 81.602836,110.04402 72.665298,109.37277 C 72.347913,109.23568 72.030528,109.09858 71.713142,108.96149 z M 139.92403,106 C 139.54943,102.51274 133.37091,92.55916 139.64239,93.563694 C 141.61608,97.076921 143.79325,102.96686 139.92403,106 z M 60.232151,95.991035 C 60.650825,88.175993 55.137806,80.968982 56.466168,73.475945 C 58.565588,66.670139 57.1178,58.790488 50.792321,55.07002 C 46.388569,50.211733 35.313796,61.736356 35.688126,50.746183 C 35.807451,43.712234 38.188506,34.865232 45.328422,31.946338 C 52.874947,29.476535 63.744239,34.805422 63.776906,43.381373 C 63.57271,48.689771 61.279259,54.707909 64.942925,59.396739 C 69.858299,66.032033 65.392934,73.327513 60.764652,78.128739 C 59.342152,84.100458 66.906763,93.113513 60.871492,97.010392 L 60.232151,95.991035 L 60.232151,95.991035 z M 63.736946,91 C 64.38823,88.07374 65.780044,94.103096 63.736946,91 z M 64.236946,86 C 66.4594,81.949487 65.495172,89.18794 64.236946,86 z M 71.420525,84.327118 C 72.182409,76.814279 77.14962,88.642926 71.474344,86.214842 L 71.382864,85.273425 L 71.420525,84.327118 L 71.420525,84.327118 z M 75.236946,78.416672 C 77.613344,71.415862 78.493159,86.808872 75.236946,78.416672 z M 130.90363,79.333336 C 129.61072,74.531697 138.77878,67.590905 140.83911,71.063398 C 138.78774,74.687334 136.19223,80.983851 130.90363,79.333336 z M 69.141228,77.384659 C 69.267025,73.209687 73.880436,82.04465 69.220169,77.467682 L 69.141228,77.384659 z M 109.83456,76.69503 C 107.84765,70.282813 122.31734,78.032543 113.02649,77.788435 C 111.89507,77.692037 110.78247,77.324284 109.83456,76.69503 z M 26.650049,52.507721 C 21.193684,44.979933 38.03585,47.35231 32.019889,53.800722 C 30.526206,55.81652 27.350336,54.610103 26.650049,52.507721 z"
       id="path2637" />
    <path
       style="fill:#8d7268"
       d="M 132.73695,119 C 132.39703,118.45 132.59547,118 133.17793,118 C 133.76039,118 134.23695,118.45 134.23695,119 C 134.23695,119.55 134.03851,120 133.79597,120 C 133.55343,120 133.07687,119.55 132.73695,119 z M 62.274108,115.59774 C 61.703669,114.09737 61.236947,112.4491 61.236947,111.9349 C 61.236947,111.42071 61.863163,111 62.628539,111 C 63.393915,111 64.318825,112.19009 64.683894,113.64464 C 65.048964,115.0992 64.88947,116.74748 64.329463,117.30748 C 63.638537,117.99841 62.977904,117.44886 62.274108,115.59774 z M 56.236947,107.5 C 56.236947,106.47004 56.892344,105.97957 57.986947,106.19037 C 58.949447,106.37573 59.648217,106.97123 59.539768,107.5137 C 59.43132,108.05616 58.64382,108.6455 57.789768,108.82332 C 56.883784,109.01197 56.236947,108.46073 56.236947,107.5 z M 70.982187,107.33707 C 68.67652,106.12282 68.396963,105.56952 69.267371,103.94315 C 69.865362,102.8258 71.354807,102 72.772131,102 C 74.12778,102 75.236947,101.55 75.236947,101 C 75.236947,100.45 75.937314,100 76.793318,100 C 77.649322,100 79.617371,98.612067 81.16676,96.915702 C 82.907598,95.009729 84.737572,93.959097 85.956766,94.165644 C 87.041879,94.349476 88.726106,93.838925 89.699491,93.031086 C 90.672877,92.223248 93.104508,90.99255 95.103115,90.296201 C 97.101723,89.599853 100.32432,89.023338 102.26444,89.015057 C 104.20457,89.006776 106.81294,88.284865 108.06082,87.41081 C 109.30871,86.536755 110.98384,86.072632 111.78333,86.379426 C 112.58282,86.686219 113.23695,87.640478 113.23695,88.500001 C 113.23695,89.359524 112.56195,90.321792 111.73695,90.638375 C 110.91195,90.954957 110.23695,91.810509 110.23695,92.539602 C 110.23695,93.268695 109.33647,94.151026 108.23589,94.500338 C 107.1353,94.84965 105.80247,95.943309 105.27404,96.930691 C 104.74561,97.918074 102.69742,98.988148 100.72251,99.308632 C 98.747588,99.629117 96.112269,100.87254 94.866239,102.07181 C 93.620209,103.27107 90.381378,105.09515 87.668838,106.12533 C 84.956298,107.1555 82.174447,107.99874 81.486947,107.99919 C 80.799447,107.99963 80.236947,107.1 80.236947,106 C 80.236947,104.9 79.797321,104 79.26,104 C 78.722679,104 77.545925,105.125 76.64499,106.5 C 75.744055,107.875 74.721182,108.95226 74.371937,108.89392 C 74.022693,108.83558 72.497305,108.135 70.982187,107.33707 z M 50.843936,103.41821 C 49.945404,101.07668 50.107819,98.000001 51.129958,98.000001 C 51.621114,98.000001 52.296114,98.711805 52.629958,99.581788 C 53.52849,101.92332 53.366075,105 52.343936,105 C 51.85278,105 51.17778,104.2882 50.843936,103.41821 z M 139.64531,101.6218 C 139.32768,100.79406 139.21943,99.329503 139.40475,98.367219 C 139.67106,96.984352 139.99531,97.174236 140.95161,99.273094 C 141.71025,100.93814 141.79998,102.15203 141.19218,102.52767 C 140.65903,102.85717 139.96294,102.44953 139.64531,101.6218 z M 77.927423,93.357144 C 77.547661,92.977382 77.236947,91.616668 77.236947,90.333334 C 77.236947,89.005575 77.83728,88.000001 78.629958,88.000001 C 79.396114,88.000001 80.312649,88.754895 80.666702,89.677542 C 81.020756,90.60019 80.704615,91.960905 79.964167,92.701352 C 79.22372,93.441799 78.307185,93.736906 77.927423,93.357144 z M 114.23695,85.000001 C 114.23695,84.450001 114.71351,84.000001 115.29597,84.000001 C 115.87843,84.000001 116.07687,84.450001 115.73695,85.000001 C 115.39703,85.550001 114.92047,86.000001 114.67793,86.000001 C 114.43539,86.000001 114.23695,85.550001 114.23695,85.000001 z M 131.34991,78.636106 C 130.4593,77.562986 131.17461,76.390417 134.70512,73.136106 C 139.02126,69.157622 141.23695,68.045033 141.23695,69.856199 C 141.23695,71.108276 134.29159,80.000001 133.31359,80.000001 C 132.85613,80.000001 131.97247,79.386248 131.34991,78.636106 z M 57.80124,75.706873 C 58.176771,74.720652 58.735932,74.165652 59.043819,74.47354 C 59.351706,74.781427 59.044453,75.588334 58.361035,76.266668 C 57.373419,77.246935 57.258555,77.132071 57.80124,75.706873 z M 110.23695,76.000001 C 110.23695,75.450001 111.58695,75.000001 113.23695,75.000001 C 114.88695,75.000001 116.23695,75.450001 116.23695,76.000001 C 116.23695,76.550001 114.88695,77.000001 113.23695,77.000001 C 111.58695,77.000001 110.23695,76.550001 110.23695,76.000001 z M 59.148086,69.250001 C 59.099213,67.187501 59.132925,63.250001 59.223002,60.500001 C 59.355345,56.459619 59.142091,55.739905 58.111862,56.750001 C 57.410659,57.437501 56.071396,58.000001 55.135723,58.000001 C 54.20005,58.000001 52.510612,56.434129 51.381417,54.520287 C 49.399419,51.16105 49.23154,51.088601 46.532641,52.427784 C 40.32368,55.508646 38.21448,56.310867 37.693364,55.789751 C 37.392735,55.489123 37.054557,53.951401 36.941857,52.372593 C 36.778278,50.08103 37.190777,49.437373 38.986947,49.181465 C 40.224447,49.005154 41.236947,48.217197 41.236947,47.43045 C 41.236947,46.643703 40.81909,46.000001 40.308376,46.000001 C 39.797661,46.000001 38.694134,45.31433 37.856092,44.476288 C 36.491142,43.111338 36.546088,42.590366 38.383439,39.476288 C 39.581293,37.446077 41.225375,36.000001 42.335723,36.000001 C 43.57028,36.000001 44.236947,35.298698 44.236947,34.000001 C 44.236947,32.293697 44.903614,32.000001 48.776785,32.000001 C 51.277872,32.000001 55.004325,32.861002 57.074753,33.917256 C 59.187375,34.995035 61.661828,37.373767 62.726086,39.349975 C 64.306642,42.28489 64.422576,43.297173 63.428117,45.479773 C 62.772974,46.917657 62.236947,50.302949 62.236947,53.002645 C 62.236947,56.589364 62.910171,58.903235 64.736947,61.595139 C 66.111947,63.621315 67.236947,65.911753 67.236947,66.685002 C 67.236947,67.458252 66.132402,69.195456 64.782402,70.545456 C 63.432402,71.895456 61.632402,73.000001 60.782402,73.000001 C 59.679007,73.000001 59.211529,71.927355 59.148086,69.250001 z M 27.449447,52.812501 C 26.782572,52.145626 26.236947,50.790001 26.236947,49.800001 C 26.236947,48.534245 26.998666,48.000001 28.803369,48.000001 C 30.997407,48.000001 31.323879,48.387833 31.053369,50.672882 C 30.879337,52.142967 30.270072,53.498592 29.699447,53.685382 C 29.128822,53.872173 28.116322,53.479376 27.449447,52.812501 z"
       id="path2635" />
  </g>
</svg>
